# Blender 5.0.1
# www.blender.org
mtllib bull2.mtl
o cuboid
v 0.500000 1.250000 -0.250000
v 0.500000 1.250000 -0.625000
v 0.500000 0.562500 -0.250000
v 0.500000 0.562500 -0.625000
v 0.375000 1.250000 -0.250000
v 0.375000 1.250000 -0.625000
v 0.375000 0.562500 -0.250000
v 0.375000 0.562500 -0.625000
vn 1.0000 -0.0000 -0.0000
vn -1.0000 -0.0000 -0.0000
vn -0.0000 1.0000 -0.0000
vn -0.0000 -1.0000 -0.0000
vn -0.0000 -0.0000 1.0000
vn -0.0000 -0.0000 -1.0000
vt 0.046875 0.613281
vt 0.000000 0.613281
vt 0.000000 0.527344
vt 0.046875 0.527344
vt 0.097656 0.527344
vt 0.097656 0.613281
vt 0.050781 0.613281
vt 0.050781 0.527344
vt 0.480469 0.585938
vt 0.496094 0.585938
vt 0.496094 0.632812
vt 0.480469 0.632812
vt 0.496094 0.535156
vt 0.496094 0.582031
vt 0.480469 0.582031
vt 0.480469 0.535156
vt 0.390625 0.464844
vt 0.390625 0.550781
vt 0.375000 0.550781
vt 0.375000 0.464844
vt 0.410156 0.550781
vt 0.394531 0.550781
vt 0.394531 0.464844
vt 0.410156 0.464844
s 1
usemtl m_baf8d1ca-51b0-9ecf-fdef-2504ef8e6fad
f 2/1/1 1/2/1 3/3/1 4/4/1
f 7/5/2 5/6/2 6/7/2 8/8/2
f 5/9/3 1/10/3 2/11/3 6/12/3
f 4/13/4 3/14/4 7/15/4 8/16/4
f 3/17/5 1/18/5 5/19/5 7/20/5
f 6/21/6 2/22/6 4/23/6 8/24/6
o cuboid.001
v 0.390625 1.687500 -1.062500
v 0.390625 1.687500 -1.312500
v 0.390625 1.625000 -1.062500
v 0.390625 1.625000 -1.312500
v 0.328125 1.687500 -1.062500
v 0.328125 1.687500 -1.312500
v 0.328125 1.625000 -1.062500
v 0.328125 1.625000 -1.312500
vn 1.0000 -0.0000 -0.0000
vn -1.0000 -0.0000 -0.0000
vn -0.0000 1.0000 -0.0000
vn -0.0000 -1.0000 -0.0000
vn -0.0000 -0.0000 1.0000
vn -0.0000 -0.0000 -1.0000
vt 0.519531 0.898438
vt 0.488281 0.898438
vt 0.488281 0.890625
vt 0.519531 0.890625
vt 0.519531 0.878906
vt 0.519531 0.886719
vt 0.488281 0.886719
vt 0.488281 0.878906
vt 0.195312 0.640625
vt 0.199219 0.640625
vt 0.199219 0.671875
vt 0.195312 0.671875
vt 0.359375 0.605469
vt 0.359375 0.636719
vt 0.355469 0.636719
vt 0.355469 0.605469
vt 0.417969 0.605469
vt 0.417969 0.613281
vt 0.414062 0.613281
vt 0.414062 0.605469
vt 0.425781 1.000000
vt 0.421875 1.000000
vt 0.421875 0.992188
vt 0.425781 0.992188
s 1
usemtl m_baf8d1ca-51b0-9ecf-fdef-2504ef8e6fad
f 10/25/7 9/26/7 11/27/7 12/28/7
f 15/29/8 13/30/8 14/31/8 16/32/8
f 13/33/9 9/34/9 10/35/9 14/36/9
f 12/37/10 11/38/10 15/39/10 16/40/10
f 11/41/11 9/42/11 13/43/11 15/44/11
f 14/45/12 10/46/12 12/47/12 16/48/12
o cuboid.002
v 0.343750 1.703125 -1.281250
v 0.343750 1.703125 -1.343750
v 0.343750 1.671875 -1.281250
v 0.343750 1.671875 -1.343750
v 0.312500 1.703125 -1.281250
v 0.312500 1.703125 -1.343750
v 0.312500 1.671875 -1.281250
v 0.312500 1.671875 -1.343750
vn 1.0000 -0.0000 -0.0000
vn -1.0000 -0.0000 -0.0000
vn -0.0000 1.0000 -0.0000
vn -0.0000 -1.0000 -0.0000
vn -0.0000 -0.0000 1.0000
vn -0.0000 -0.0000 -1.0000
vt 0.437500 0.726562
vt 0.429688 0.726562
vt 0.429688 0.722656
vt 0.437500 0.722656
vt 0.437500 0.714844
vt 0.437500 0.718750
vt 0.429688 0.718750
vt 0.429688 0.714844
vt 0.414062 0.628906
vt 0.417969 0.628906
vt 0.417969 0.636719
vt 0.414062 0.636719
vt 0.417969 0.617188
vt 0.417969 0.625000
vt 0.414062 0.625000
vt 0.414062 0.617188
vt 0.417969 0.597656
vt 0.417969 0.601562
vt 0.414062 0.601562
vt 0.414062 0.597656
vt 0.425781 0.988281
vt 0.421875 0.988281
vt 0.421875 0.984375
vt 0.425781 0.984375
s 1
usemtl m_baf8d1ca-51b0-9ecf-fdef-2504ef8e6fad
f 18/49/13 17/50/13 19/51/13 20/52/13
f 23/53/14 21/54/14 22/55/14 24/56/14
f 21/57/15 17/58/15 18/59/15 22/60/15
f 20/61/16 19/62/16 23/63/16 24/64/16
f 19/65/17 17/66/17 21/67/17 23/68/17
f 22/69/18 18/70/18 20/71/18 24/72/18
o cuboid.003
v -0.328125 1.687500 -1.062500
v -0.328125 1.687500 -1.312500
v -0.328125 1.625000 -1.062500
v -0.328125 1.625000 -1.312500
v -0.390625 1.687500 -1.062500
v -0.390625 1.687500 -1.312500
v -0.390625 1.625000 -1.062500
v -0.390625 1.625000 -1.312500
vn 1.0000 -0.0000 -0.0000
vn -1.0000 -0.0000 -0.0000
vn -0.0000 1.0000 -0.0000
vn -0.0000 -1.0000 -0.0000
vn -0.0000 -0.0000 1.0000
vn -0.0000 -0.0000 -1.0000
vt 0.519531 0.921875
vt 0.488281 0.921875
vt 0.488281 0.914062
vt 0.519531 0.914062
vt 0.519531 0.902344
vt 0.519531 0.910156
vt 0.488281 0.910156
vt 0.488281 0.902344
vt 0.195312 0.710938
vt 0.199219 0.710938
vt 0.199219 0.742188
vt 0.195312 0.742188
vt 0.199219 0.675781
vt 0.199219 0.707031
vt 0.195312 0.707031
vt 0.195312 0.675781
vt 0.417969 0.652344
vt 0.417969 0.660156
vt 0.414062 0.660156
vt 0.414062 0.652344
vt 0.417969 0.648438
vt 0.414062 0.648438
vt 0.414062 0.640625
vt 0.417969 0.640625
s 1
usemtl m_baf8d1ca-51b0-9ecf-fdef-2504ef8e6fad
f 26/73/19 25/74/19 27/75/19 28/76/19
f 31/77/20 29/78/20 30/79/20 32/80/20
f 29/81/21 25/82/21 26/83/21 30/84/21
f 28/85/22 27/86/22 31/87/22 32/88/22
f 27/89/23 25/90/23 29/91/23 31/92/23
f 30/93/24 26/94/24 28/95/24 32/96/24
o cuboid.004
v -0.312500 1.703125 -1.281250
v -0.312500 1.703125 -1.343750
v -0.312500 1.671875 -1.281250
v -0.312500 1.671875 -1.343750
v -0.343750 1.703125 -1.281250
v -0.343750 1.703125 -1.343750
v -0.343750 1.671875 -1.281250
v -0.343750 1.671875 -1.343750
vn 1.0000 -0.0000 -0.0000
vn -1.0000 -0.0000 -0.0000
vn -0.0000 1.0000 -0.0000
vn -0.0000 -1.0000 -0.0000
vn -0.0000 -0.0000 1.0000
vn -0.0000 -0.0000 -1.0000
vt 0.195312 0.593750
vt 0.187500 0.593750
vt 0.187500 0.589844
vt 0.195312 0.589844
vt 0.437500 0.730469
vt 0.437500 0.734375
vt 0.429688 0.734375
vt 0.429688 0.730469
vt 0.414062 0.675781
vt 0.417969 0.675781
vt 0.417969 0.683594
vt 0.414062 0.683594
vt 0.417969 0.664062
vt 0.417969 0.671875
vt 0.414062 0.671875
vt 0.414062 0.664062
vt 0.359375 0.597656
vt 0.359375 0.601562
vt 0.355469 0.601562
vt 0.355469 0.597656
vt 0.203125 0.593750
vt 0.199219 0.593750
vt 0.199219 0.589844
vt 0.203125 0.589844
s 1
usemtl m_baf8d1ca-51b0-9ecf-fdef-2504ef8e6fad
f 34/97/25 33/98/25 35/99/25 36/100/25
f 39/101/26 37/102/26 38/103/26 40/104/26
f 37/105/27 33/106/27 34/107/27 38/108/27
f 36/109/28 35/110/28 39/111/28 40/112/28
f 35/113/29 33/114/29 37/115/29 39/116/29
f 38/117/30 34/118/30 36/119/30 40/120/30
o cuboid.005
v 0.375000 1.710937 -0.976563
v 0.375000 1.710937 -1.085938
v 0.375000 1.601562 -0.976563
v 0.375000 1.601562 -1.085938
v 0.250000 1.710937 -0.976563
v 0.250000 1.710937 -1.085938
v 0.250000 1.601562 -0.976563
v 0.250000 1.601562 -1.085938
vn 1.0000 -0.0000 -0.0000
vn -1.0000 -0.0000 -0.0000
vn -0.0000 1.0000 -0.0000
vn -0.0000 -1.0000 -0.0000
vn -0.0000 -0.0000 1.0000
vn -0.0000 -0.0000 -1.0000
vt 0.300781 0.585938
vt 0.292969 0.585938
vt 0.292969 0.578125
vt 0.300781 0.578125
vt 0.300781 0.566406
vt 0.300781 0.574219
vt 0.292969 0.574219
vt 0.292969 0.566406
vt 0.488281 0.820312
vt 0.503906 0.820312
vt 0.503906 0.828125
vt 0.488281 0.828125
vt 0.503906 0.808594
vt 0.503906 0.816406
vt 0.488281 0.816406
vt 0.488281 0.808594
vt 0.503906 0.796875
vt 0.503906 0.804688
vt 0.488281 0.804688
vt 0.488281 0.796875
vt 0.496094 0.511719
vt 0.480469 0.511719
vt 0.480469 0.503906
vt 0.496094 0.503906
s 1
usemtl m_baf8d1ca-51b0-9ecf-fdef-2504ef8e6fad
f 42/121/31 41/122/31 43/123/31 44/124/31
f 47/125/32 45/126/32 46/127/32 48/128/32
f 45/129/33 41/130/33 42/131/33 46/132/33
f 44/133/34 43/134/34 47/135/34 48/136/34
f 43/137/35 41/138/35 45/139/35 47/140/35
f 46/141/36 42/142/36 44/143/36 48/144/36
o cuboid.006
v -0.250000 1.710937 -0.976563
v -0.250000 1.710937 -1.085938
v -0.250000 1.601562 -0.976563
v -0.250000 1.601562 -1.085938
v -0.375000 1.710937 -0.976563
v -0.375000 1.710937 -1.085938
v -0.375000 1.601562 -0.976563
v -0.375000 1.601562 -1.085938
vn 1.0000 -0.0000 -0.0000
vn -1.0000 -0.0000 -0.0000
vn -0.0000 1.0000 -0.0000
vn -0.0000 -1.0000 -0.0000
vn -0.0000 -0.0000 1.0000
vn -0.0000 -0.0000 -1.0000
vt 0.203125 0.636719
vt 0.195312 0.636719
vt 0.195312 0.628906
vt 0.203125 0.628906
vt 0.203125 0.617188
vt 0.203125 0.625000
vt 0.195312 0.625000
vt 0.195312 0.617188
vt 0.488281 0.867188
vt 0.503906 0.867188
vt 0.503906 0.875000
vt 0.488281 0.875000
vt 0.503906 0.855469
vt 0.503906 0.863281
vt 0.488281 0.863281
vt 0.488281 0.855469
vt 0.503906 0.843750
vt 0.503906 0.851562
vt 0.488281 0.851562
vt 0.488281 0.843750
vt 0.503906 0.839844
vt 0.488281 0.839844
vt 0.488281 0.832031
vt 0.503906 0.832031
s 1
usemtl m_baf8d1ca-51b0-9ecf-fdef-2504ef8e6fad
f 50/145/37 49/146/37 51/147/37 52/148/37
f 55/149/38 53/150/38 54/151/38 56/152/38
f 53/153/39 49/154/39 50/155/39 54/156/39
f 52/157/40 51/158/40 55/159/40 56/160/40
f 51/161/41 49/162/41 53/163/41 55/164/41
f 54/165/42 50/166/42 52/167/42 56/168/42
o cuboid.007
v 0.500000 1.500000 0.781250
v 0.500000 1.500000 0.343750
v 0.500000 0.562500 0.781250
v 0.500000 0.562500 0.343750
v 0.375000 1.500000 0.781250
v 0.375000 1.500000 0.343750
v 0.375000 0.562500 0.781250
v 0.375000 0.562500 0.343750
vn 1.0000 -0.0000 -0.0000
vn -1.0000 -0.0000 -0.0000
vn -0.0000 1.0000 -0.0000
vn -0.0000 -1.0000 -0.0000
vn -0.0000 -0.0000 1.0000
vn -0.0000 -0.0000 -1.0000
vt 0.359375 1.000000
vt 0.304688 1.000000
vt 0.304688 0.882812
vt 0.359375 0.882812
vt 0.359375 0.761719
vt 0.359375 0.878906
vt 0.304688 0.878906
vt 0.304688 0.761719
vt 0.468750 0.796875
vt 0.484375 0.796875
vt 0.484375 0.851562
vt 0.468750 0.851562
vt 0.074219 0.468750
vt 0.074219 0.523438
vt 0.058594 0.523438
vt 0.058594 0.468750
vt 0.445312 0.738281
vt 0.445312 0.855469
vt 0.429688 0.855469
vt 0.429688 0.738281
vt 0.457031 0.734375
vt 0.441406 0.734375
vt 0.441406 0.617188
vt 0.457031 0.617188
s 1
usemtl m_baf8d1ca-51b0-9ecf-fdef-2504ef8e6fad
f 58/169/43 57/170/43 59/171/43 60/172/43
f 63/173/44 61/174/44 62/175/44 64/176/44
f 61/177/45 57/178/45 58/179/45 62/180/45
f 60/181/46 59/182/46 63/183/46 64/184/46
f 59/185/47 57/186/47 61/187/47 63/188/47
f 62/189/48 58/190/48 60/191/48 64/192/48
o cuboid.008
v 0.500000 0.562500 0.750000
v 0.500000 0.562500 0.625000
v 0.500000 0.000000 0.750000
v 0.500000 0.000000 0.625000
v 0.375000 0.562500 0.750000
v 0.375000 0.562500 0.625000
v 0.375000 0.000000 0.750000
v 0.375000 0.000000 0.625000
vn 1.0000 -0.0000 -0.0000
vn -1.0000 -0.0000 -0.0000
vn -0.0000 1.0000 -0.0000
vn -0.0000 -1.0000 -0.0000
vn -0.0000 -0.0000 1.0000
vn -0.0000 -0.0000 -1.0000
vt 0.484375 0.925781
vt 0.468750 0.925781
vt 0.468750 0.855469
vt 0.484375 0.855469
vt 0.015625 0.453125
vt 0.015625 0.523438
vt 0.000000 0.523438
vt 0.000000 0.453125
vt 0.488281 0.945312
vt 0.503906 0.945312
vt 0.503906 0.960938
vt 0.488281 0.960938
vt 0.503906 0.925781
vt 0.503906 0.941406
vt 0.488281 0.941406
vt 0.488281 0.925781
vt 0.035156 0.453125
vt 0.035156 0.523438
vt 0.019531 0.523438
vt 0.019531 0.453125
vt 0.054688 0.523438
vt 0.039062 0.523438
vt 0.039062 0.453125
vt 0.054688 0.453125
s 1
usemtl m_baf8d1ca-51b0-9ecf-fdef-2504ef8e6fad
f 66/193/49 65/194/49 67/195/49 68/196/49
f 71/197/50 69/198/50 70/199/50 72/200/50
f 69/201/51 65/202/51 66/203/51 70/204/51
f 68/205/52 67/206/52 71/207/52 72/208/52
f 67/209/53 65/210/53 69/211/53 71/212/53
f 70/213/54 66/214/54 68/215/54 72/216/54
o cuboid.009
v 0.375000 1.625000 0.750000
v 0.375000 1.625000 -0.875000
v 0.375000 0.625000 0.750000
v 0.375000 0.625000 -0.875000
v -0.375000 1.625000 0.750000
v -0.375000 1.625000 -0.875000
v -0.375000 0.625000 0.750000
v -0.375000 0.625000 -0.875000
vn 1.0000 -0.0000 -0.0000
vn -1.0000 -0.0000 -0.0000
vn -0.0000 1.0000 -0.0000
vn -0.0000 -1.0000 -0.0000
vn -0.0000 -0.0000 1.0000
vn -0.0000 -0.0000 -1.0000
vt 0.203125 1.000000
vt 0.000000 1.000000
vt 0.000000 0.875000
vt 0.203125 0.875000
vt 0.203125 0.746094
vt 0.203125 0.871094
vt 0.000000 0.871094
vt 0.000000 0.746094
vt 0.207031 0.796875
vt 0.300781 0.796875
vt 0.300781 1.000000
vt 0.207031 1.000000
vt 0.300781 0.589844
vt 0.300781 0.792969
vt 0.207031 0.792969
vt 0.207031 0.589844
vt 0.093750 0.617188
vt 0.093750 0.742188
vt 0.000000 0.742188
vt 0.000000 0.617188
vt 0.191406 0.742188
vt 0.097656 0.742188
vt 0.097656 0.617188
vt 0.191406 0.617188
s 1
usemtl m_baf8d1ca-51b0-9ecf-fdef-2504ef8e6fad
f 74/217/55 73/218/55 75/219/55 76/220/55
f 79/221/56 77/222/56 78/223/56 80/224/56
f 77/225/57 73/226/57 74/227/57 78/228/57
f 76/229/58 75/230/58 79/231/58 80/232/58
f 75/233/59 73/234/59 77/235/59 79/236/59
f 78/237/60 74/238/60 76/239/60 80/240/60
o cuboid.010
v 0.500000 0.562500 -0.500000
v 0.500000 0.562500 -0.625000
v 0.500000 -0.000000 -0.500000
v 0.500000 -0.000000 -0.625000
v 0.375000 0.562500 -0.500000
v 0.375000 0.562500 -0.625000
v 0.375000 -0.000000 -0.500000
v 0.375000 -0.000000 -0.625000
vn 1.0000 -0.0000 -0.0000
vn -1.0000 -0.0000 -0.0000
vn -0.0000 1.0000 -0.0000
vn -0.0000 -1.0000 -0.0000
vn -0.0000 -0.0000 1.0000
vn -0.0000 -0.0000 -1.0000
vt 0.476562 0.640625
vt 0.460938 0.640625
vt 0.460938 0.570312
vt 0.476562 0.570312
vt 0.429688 0.468750
vt 0.429688 0.539062
vt 0.414062 0.539062
vt 0.414062 0.468750
vt 0.488281 0.984375
vt 0.503906 0.984375
vt 0.503906 1.000000
vt 0.488281 1.000000
vt 0.503906 0.964844
vt 0.503906 0.980469
vt 0.488281 0.980469
vt 0.488281 0.964844
vt 0.476562 0.496094
vt 0.476562 0.566406
vt 0.460938 0.566406
vt 0.460938 0.496094
vt 0.484375 1.000000
vt 0.468750 1.000000
vt 0.468750 0.929688
vt 0.484375 0.929688
s 1
usemtl m_baf8d1ca-51b0-9ecf-fdef-2504ef8e6fad
f 82/241/61 81/242/61 83/243/61 84/244/61
f 87/245/62 85/246/62 86/247/62 88/248/62
f 85/249/63 81/250/63 82/251/63 86/252/63
f 84/253/64 83/254/64 87/255/64 88/256/64
f 83/257/65 81/258/65 85/259/65 87/260/65
f 86/261/66 82/262/66 84/263/66 88/264/66
o cuboid.011
v 0.062500 1.562500 0.875000
v 0.062500 1.562500 0.750000
v 0.062500 0.437500 0.875000
v 0.062500 0.437500 0.750000
v -0.062500 1.562500 0.875000
v -0.062500 1.562500 0.750000
v -0.062500 0.437500 0.875000
v -0.062500 0.437500 0.750000
vn 1.0000 -0.0000 -0.0000
vn -1.0000 -0.0000 -0.0000
vn -0.0000 1.0000 -0.0000
vn -0.0000 -1.0000 -0.0000
vn -0.0000 -0.0000 1.0000
vn -0.0000 -0.0000 -1.0000
vt 0.269531 0.585938
vt 0.253906 0.585938
vt 0.253906 0.445312
vt 0.269531 0.445312
vt 0.289062 0.445312
vt 0.289062 0.585938
vt 0.273438 0.585938
vt 0.273438 0.445312
vt 0.136719 0.500000
vt 0.152344 0.500000
vt 0.152344 0.515625
vt 0.136719 0.515625
vt 0.171875 0.500000
vt 0.171875 0.515625
vt 0.156250 0.515625
vt 0.156250 0.500000
vt 0.437500 0.542969
vt 0.437500 0.683594
vt 0.421875 0.683594
vt 0.421875 0.542969
vt 0.445312 1.000000
vt 0.429688 1.000000
vt 0.429688 0.859375
vt 0.445312 0.859375
s 1
usemtl m_baf8d1ca-51b0-9ecf-fdef-2504ef8e6fad
f 90/265/67 89/266/67 91/267/67 92/268/67
f 95/269/68 93/270/68 94/271/68 96/272/68
f 93/273/69 89/274/69 90/275/69 94/276/69
f 92/277/70 91/278/70 95/279/70 96/280/70
f 91/281/71 89/282/71 93/283/71 95/284/71
f 94/285/72 90/286/72 92/287/72 96/288/72
o cuboid.012
v -0.375000 0.562500 0.750000
v -0.375000 0.562500 0.625000
v -0.375000 0.000000 0.750000
v -0.375000 0.000000 0.625000
v -0.500000 0.562500 0.750000
v -0.500000 0.562500 0.625000
v -0.500000 0.000000 0.750000
v -0.500000 0.000000 0.625000
vn 1.0000 -0.0000 -0.0000
vn -1.0000 -0.0000 -0.0000
vn -0.0000 1.0000 -0.0000
vn -0.0000 -1.0000 -0.0000
vn -0.0000 -0.0000 1.0000
vn -0.0000 -0.0000 -1.0000
vt 0.222656 0.542969
vt 0.207031 0.542969
vt 0.207031 0.472656
vt 0.222656 0.472656
vt 0.242188 0.472656
vt 0.242188 0.542969
vt 0.226562 0.542969
vt 0.226562 0.472656
vt 0.097656 0.500000
vt 0.113281 0.500000
vt 0.113281 0.515625
vt 0.097656 0.515625
vt 0.132812 0.500000
vt 0.132812 0.515625
vt 0.117188 0.515625
vt 0.117188 0.500000
vt 0.476562 0.718750
vt 0.476562 0.789062
vt 0.460938 0.789062
vt 0.460938 0.718750
vt 0.476562 0.714844
vt 0.460938 0.714844
vt 0.460938 0.644531
vt 0.476562 0.644531
s 1
usemtl m_baf8d1ca-51b0-9ecf-fdef-2504ef8e6fad
f 98/289/73 97/290/73 99/291/73 100/292/73
f 103/293/74 101/294/74 102/295/74 104/296/74
f 101/297/75 97/298/75 98/299/75 102/300/75
f 100/301/76 99/302/76 103/303/76 104/304/76
f 99/305/77 97/306/77 101/307/77 103/308/77
f 102/309/78 98/310/78 100/311/78 104/312/78
o cuboid.013
v -0.375000 0.562500 -0.500000
v -0.375000 0.562500 -0.625000
v -0.375000 -0.000000 -0.500000
v -0.375000 -0.000000 -0.625000
v -0.500000 0.562500 -0.500000
v -0.500000 0.562500 -0.625000
v -0.500000 -0.000000 -0.500000
v -0.500000 -0.000000 -0.625000
vn 1.0000 -0.0000 -0.0000
vn -1.0000 -0.0000 -0.0000
vn -0.0000 1.0000 -0.0000
vn -0.0000 -1.0000 -0.0000
vn -0.0000 -0.0000 1.0000
vn -0.0000 -0.0000 -1.0000
vt 0.308594 0.546875
vt 0.292969 0.546875
vt 0.292969 0.476562
vt 0.308594 0.476562
vt 0.328125 0.476562
vt 0.328125 0.546875
vt 0.312500 0.546875
vt 0.312500 0.476562
vt 0.187500 0.597656
vt 0.203125 0.597656
vt 0.203125 0.613281
vt 0.187500 0.613281
vt 0.496094 0.515625
vt 0.496094 0.531250
vt 0.480469 0.531250
vt 0.480469 0.515625
vt 0.347656 0.476562
vt 0.347656 0.546875
vt 0.332031 0.546875
vt 0.332031 0.476562
vt 0.203125 0.542969
vt 0.187500 0.542969
vt 0.187500 0.472656
vt 0.203125 0.472656
s 1
usemtl m_baf8d1ca-51b0-9ecf-fdef-2504ef8e6fad
f 106/313/79 105/314/79 107/315/79 108/316/79
f 111/317/80 109/318/80 110/319/80 112/320/80
f 109/321/81 105/322/81 106/323/81 110/324/81
f 108/325/82 107/326/82 111/327/82 112/328/82
f 107/329/83 105/330/83 109/331/83 111/332/83
f 110/333/84 106/334/84 108/335/84 112/336/84
o cuboid.014
v -0.375000 1.500000 0.781250
v -0.375000 1.500000 0.343750
v -0.375000 0.562500 0.781250
v -0.375000 0.562500 0.343750
v -0.500000 1.500000 0.781250
v -0.500000 1.500000 0.343750
v -0.500000 0.562500 0.781250
v -0.500000 0.562500 0.343750
vn 1.0000 -0.0000 -0.0000
vn -1.0000 -0.0000 -0.0000
vn -0.0000 1.0000 -0.0000
vn -0.0000 -1.0000 -0.0000
vn -0.0000 -0.0000 1.0000
vn -0.0000 -0.0000 -1.0000
vt 0.359375 0.757812
vt 0.304688 0.757812
vt 0.304688 0.640625
vt 0.359375 0.640625
vt 0.417969 0.882812
vt 0.417969 1.000000
vt 0.363281 1.000000
vt 0.363281 0.882812
vt 0.078125 0.468750
vt 0.093750 0.468750
vt 0.093750 0.523438
vt 0.078125 0.523438
vt 0.496094 0.738281
vt 0.496094 0.792969
vt 0.480469 0.792969
vt 0.480469 0.738281
vt 0.457031 0.496094
vt 0.457031 0.613281
vt 0.441406 0.613281
vt 0.441406 0.496094
vt 0.464844 1.000000
vt 0.449219 1.000000
vt 0.449219 0.882812
vt 0.464844 0.882812
s 1
usemtl m_baf8d1ca-51b0-9ecf-fdef-2504ef8e6fad
f 114/337/85 113/338/85 115/339/85 116/340/85
f 119/341/86 117/342/86 118/343/86 120/344/86
f 117/345/87 113/346/87 114/347/87 118/348/87
f 116/349/88 115/350/88 119/351/88 120/352/88
f 115/353/89 113/354/89 117/355/89 119/356/89
f 118/357/90 114/358/90 116/359/90 120/360/90
o cuboid.015
v -0.375000 1.250000 -0.250000
v -0.375000 1.250000 -0.625000
v -0.375000 0.562500 -0.250000
v -0.375000 0.562500 -0.625000
v -0.500000 1.250000 -0.250000
v -0.500000 1.250000 -0.625000
v -0.500000 0.562500 -0.250000
v -0.500000 0.562500 -0.625000
vn 1.0000 -0.0000 -0.0000
vn -1.0000 -0.0000 -0.0000
vn -0.0000 1.0000 -0.0000
vn -0.0000 -1.0000 -0.0000
vn -0.0000 -0.0000 1.0000
vn -0.0000 -0.0000 -1.0000
vt 0.351562 0.636719
vt 0.304688 0.636719
vt 0.304688 0.550781
vt 0.351562 0.550781
vt 0.410156 0.597656
vt 0.410156 0.683594
vt 0.363281 0.683594
vt 0.363281 0.597656
vt 0.480469 0.687500
vt 0.496094 0.687500
vt 0.496094 0.734375
vt 0.480469 0.734375
vt 0.496094 0.636719
vt 0.496094 0.683594
vt 0.480469 0.683594
vt 0.480469 0.636719
vt 0.464844 0.792969
vt 0.464844 0.878906
vt 0.449219 0.878906
vt 0.449219 0.792969
vt 0.371094 0.550781
vt 0.355469 0.550781
vt 0.355469 0.464844
vt 0.371094 0.464844
s 1
usemtl m_baf8d1ca-51b0-9ecf-fdef-2504ef8e6fad
f 122/361/91 121/362/91 123/363/91 124/364/91
f 127/365/92 125/366/92 126/367/92 128/368/92
f 125/369/93 121/370/93 122/371/93 126/372/93
f 124/373/94 123/374/94 127/375/94 128/376/94
f 123/377/95 121/378/95 125/379/95 127/380/95
f 126/381/96 122/382/96 124/383/96 128/384/96
o cuboid.016
v 0.250000 1.750000 -0.875000
v 0.250000 1.750000 -1.187500
v 0.250000 1.000000 -0.875000
v 0.250000 1.000000 -1.187500
v -0.250000 1.750000 -0.875000
v -0.250000 1.750000 -1.187500
v -0.250000 1.000000 -0.875000
v -0.250000 1.000000 -1.187500
vn 1.0000 -0.0000 -0.0000
vn -1.0000 -0.0000 -0.0000
vn -0.0000 1.0000 -0.0000
vn -0.0000 -1.0000 -0.0000
vn -0.0000 -0.0000 1.0000
vn -0.0000 -0.0000 -1.0000
vt 0.140625 0.613281
vt 0.101562 0.613281
vt 0.101562 0.519531
vt 0.140625 0.519531
vt 0.183594 0.519531
vt 0.183594 0.613281
vt 0.144531 0.613281
vt 0.144531 0.519531
vt 0.355469 0.554688
vt 0.417969 0.554688
vt 0.417969 0.593750
vt 0.355469 0.593750
vt 0.250000 0.546875
vt 0.250000 0.585938
vt 0.187500 0.585938
vt 0.187500 0.546875
vt 0.425781 0.785156
vt 0.425781 0.878906
vt 0.363281 0.878906
vt 0.363281 0.785156
vt 0.425781 0.781250
vt 0.363281 0.781250
vt 0.363281 0.687500
vt 0.425781 0.687500
s 1
usemtl m_baf8d1ca-51b0-9ecf-fdef-2504ef8e6fad
f 130/385/97 129/386/97 131/387/97 132/388/97
f 135/389/98 133/390/98 134/391/98 136/392/98
f 133/393/99 129/394/99 130/395/99 134/396/99
f 132/397/100 131/398/100 135/399/100 136/400/100
f 131/401/101 129/402/101 133/403/101 135/404/101
f 134/405/102 130/406/102 132/407/102 136/408/102
