# Made in Blockbench 5.0.4
mtllib cicada.mtl

o cuboid
v 0.03125 0.040625 0.0390625
v 0.03125 0.040625 -0.0390625
v 0.03125 0.009375 0.0390625
v 0.03125 0.009375 -0.0390625
v -0.03125 0.040625 0.0390625
v -0.03125 0.040625 -0.0390625
v -0.03125 0.009375 0.0390625
v -0.03125 0.009375 -0.0390625
vt 0 1
vt 0.1875 1
vt 0.1875 0.9375
vt 0 0.9375
vt 0.1875 0.8125
vt 0.1875 0.875
vt 0 0.875
vt 0 0.8125
vt 0.1875 0.5
vt 0.1875 0.625
vt 0 0.625
vt 0 0.5
vt 0.1875 0.3125
vt 0.1875 0.4375
vt 0 0.4375
vt 0 0.3125
vt 0.4375 0.5625
vt 0.4375 0.625
vt 0.375 0.625
vt 0.375 0.5625
vt 0.125 0.75
vt 0 0.75
vt 0 0.6875
vt 0.125 0.6875
vn 1 0 0
vn -1 0 0
vn 0 1 0
vn 0 -1 0
vn 0 0 1
vn 0 0 -1
usemtl m_377ab8f6-cfb9-eb21-ebfd-0ebfb0e74467
f 2/1/1 1/2/1 3/3/1 4/4/1
f 7/5/2 5/6/2 6/7/2 8/8/2
f 5/9/3 1/10/3 2/11/3 6/12/3
f 4/13/4 3/14/4 7/15/4 8/16/4
f 3/17/5 1/18/5 5/19/5 7/20/5
f 6/21/6 2/22/6 4/23/6 8/24/6
o plane
v 0.012500000000000008 0.084375 -0.0390625
v 0.012500000000000008 0.084375 -0.0546875
v 0.012499999999999994 0.021875 -0.0390625
v 0.012499999999999994 0.021875 -0.0546875
vt 0 0.25
vt 0.25 0.25
vt 0.25 0.125
vt 0 0.125
vn -1 2.220446049250313e-16 0
usemtl m_377ab8f6-cfb9-eb21-ebfd-0ebfb0e74467
f 9/25/7 10/26/7 12/27/7 11/28/7
o plane
v -0.012499999999999994 0.084375 -0.0390625
v -0.012499999999999994 0.084375 -0.0546875
v -0.012500000000000008 0.021875 -0.0390625
v -0.012500000000000008 0.021875 -0.0546875
vt 0 0.125
vt 0.25 0.125
vt 0.25 0
vt 0 0
vn -1 2.220446049250313e-16 0
usemtl m_377ab8f6-cfb9-eb21-ebfd-0ebfb0e74467
f 13/29/8 14/30/8 16/31/8 15/32/8
o plane
v -0.05710921246854554 0.05708356201057144 0.11898329658318202
v -0.0695195644050175 0.028414156673515573 0.11820171969476997
v -0.014356694552836852 0.04175174955451351 0.0025266190645473474
v -0.026767046489308798 0.013082344217457645 0.001745042176135296
vt 0.5625 1
vt 0.5625 0.8125
vt 0.3125 0.8125
vt 0.3125 1
vn 0.8516507396391465 -0.3785427797204011 0.36248638814946776
usemtl m_377ab8f6-cfb9-eb21-ebfd-0ebfb0e74467
f 17/33/9 18/34/9 20/35/9 19/36/9
o plane
v 0.057109212468545674 0.05708356201057148 0.11898329658318199
v 0.06951956440501769 0.028414156673515652 0.11820171969476989
v 0.014356694552836707 0.04175174955451345 0.00252661906454741
v 0.026767046489308728 0.01308234421745762 0.0017450421761353203
vt 0.875 1
vt 0.875 0.8125
vt 0.625 0.8125
vt 0.625 1
vn 0.8516507396391444 0.3785427797204035 -0.36248638814947
usemtl m_377ab8f6-cfb9-eb21-ebfd-0ebfb0e74467
f 21/37/10 22/38/10 24/39/10 23/40/10
o plane
v 0.05465833327120211 0.06250000000000011 -0.02700566920405644
v 0.05465833327120211 1.214306433183765e-16 -0.027005669204056573
v 0.030719444423734046 0.06250000000000008 -0.006918556401352093
v 0.030719444423734046 7.632783294297951e-17 -0.006918556401352225
vt 0.875 0.8125
vt 0.875 0.625
vt 0.625 0.625
vt 0.625 0.8125
vn -0.6427876096865393 1.615912339410007e-15 -0.7660444431189783
usemtl m_377ab8f6-cfb9-eb21-ebfd-0ebfb0e74467
f 25/41/11 26/42/11 28/43/11 27/44/11
o plane
v -0.05465833327120208 0.06250000000000014 -0.027005669204056476
v -0.05465833327120208 1.2836953722228372e-16 -0.02700566920405663
v -0.03071944442373401 0.06250000000000008 -0.0069185564013521175
v -0.030719444423734015 7.632783294297951e-17 -0.00691855640135227
vt 0.5625 0.8125
vt 0.5625 0.625
vt 0.3125 0.625
vt 0.3125 0.8125
vn -0.6427876096865394 -1.835374512790172e-15 0.7660444431189782
usemtl m_377ab8f6-cfb9-eb21-ebfd-0ebfb0e74467
f 29/45/12 30/46/12 32/47/12 31/48/12
o plane
v -0.06092910343886035 0.06250000000000007 0.0223943766710853
v -0.06092910343886035 4.85722573273506e-17 0.022394376671085146
v -0.03156370903930071 0.06250000000000008 0.011706247192158145
v -0.03156370903930071 7.632783294297951e-17 0.011706247192157992
vt 0.5625 0.5
vt 0.5625 0.3125
vt 0.3125 0.3125
vt 0.3125 0.5
vn 0.3420201433256688 -2.3046834100172603e-15 0.9396926207859084
usemtl m_377ab8f6-cfb9-eb21-ebfd-0ebfb0e74467
f 33/49/13 34/50/13 36/51/13 35/52/13
o plane
v 0.06092910343886033 0.06250000000000006 0.022394376671085292
v 0.060929103438860335 7.28583859910259e-17 0.022394376671085223
v 0.0315637090393007 0.06250000000000007 0.01170624719215815
v 0.031563709039300704 7.979727989493313e-17 0.01170624719215808
vt 0.875 0.5
vt 0.875 0.3125
vt 0.625 0.3125
vt 0.625 0.5
vn 0.34202014332566866 1.0717472815173034e-15 -0.9396926207859085
usemtl m_377ab8f6-cfb9-eb21-ebfd-0ebfb0e74467
f 37/53/14 38/54/14 40/55/14 39/56/14
o plane
v -0.04016823550747083 0.06250000000000004 0.06123687956552293
v -0.04016823550747083 3.8163916471489756e-17 0.061236879565522845
v -0.03208014034801706 0.06250000000000008 0.031051697493989543
v -0.03208014034801706 7.979727989493313e-17 0.03105169749398946
vt 0.5625 0.5
vt 0.5625 0.3125
vt 0.3125 0.3125
vt 0.3125 0.5
vn 0.9659258262890683 -3.4481623570117846e-16 0.25881904510252074
usemtl m_377ab8f6-cfb9-eb21-ebfd-0ebfb0e74467
f 41/57/15 42/58/15 44/59/15 43/60/15
o plane
v 0.040168235507470784 0.06250000000000006 0.06123687956552293
v 0.040168235507470784 5.204170427930421e-17 0.061236879565522866
v 0.03208014034801701 0.06250000000000008 0.031051697493989547
v 0.03208014034801702 7.632783294297951e-17 0.031051697493989484
vt 0.875 0.5
vt 0.875 0.3125
vt 0.625 0.3125
vt 0.625 0.5
vn 0.9659258262890684 3.6585148601850423e-16 -0.2588190451025208
usemtl m_377ab8f6-cfb9-eb21-ebfd-0ebfb0e74467
f 45/61/16 46/62/16 48/63/16 47/64/16