# Made in Blockbench 5.0.4
mtllib eagle.mtl

o cuboid
v 0.09375 -0.0625 0.125
v 0.09375 -0.0625 -0.0625
v 0.09375 -0.4375 0.125
v 0.09375 -0.4375 -0.0625
v -0.09375 -0.0625 0.125
v -0.09375 -0.0625 -0.0625
v -0.09375 -0.4375 0.125
v -0.09375 -0.4375 -0.0625
vt 0.09375 1
vt 0 1
vt 0 0.8125
vt 0.09375 0.8125
vt 0.21875 0.8125
vt 0.21875 1
vt 0.125 1
vt 0.125 0.8125
vt 0 0.46875
vt 0.09375 0.46875
vt 0.09375 0.5625
vt 0 0.5625
vt 0.21875 0.46875
vt 0.21875 0.5625
vt 0.125 0.5625
vt 0.125 0.46875
vt 0.09375 0.59375
vt 0.09375 0.78125
vt 0 0.78125
vt 0 0.59375
vt 0.21875 0.78125
vt 0.125 0.78125
vt 0.125 0.59375
vt 0.21875 0.59375
vn 1 0 0
vn -1 0 0
vn 0 1 0
vn 0 -1 0
vn 0 0 1
vn 0 0 -1
usemtl m_d43446cc-86bb-b640-ca8e-6f33ecf54d05
f 2/1/1 1/2/1 3/3/1 4/4/1
f 7/5/2 5/6/2 6/7/2 8/8/2
f 5/9/3 1/10/3 2/11/3 6/12/3
f 4/13/4 3/14/4 7/15/4 8/16/4
f 3/17/5 1/18/5 5/19/5 7/20/5
f 6/21/6 2/22/6 4/23/6 8/24/6
o cuboid
v 0.08838834764831843 0.0625 -6.938893903907228e-18
v -6.938893903907228e-18 0.0625 -0.08838834764831843
v 0.08838834764831843 -0.0625 -6.938893903907228e-18
v -6.938893903907228e-18 -0.0625 -0.08838834764831843
v 6.938893903907228e-18 0.0625 0.08838834764831843
v -0.08838834764831843 0.0625 6.938893903907228e-18
v 6.938893903907228e-18 -0.0625 0.08838834764831843
v -0.08838834764831843 -0.0625 6.938893903907228e-18
vt 0.875 0.8125
vt 0.75 0.8125
vt 0.75 0.6875
vt 0.875 0.6875
vt 1 0.4375
vt 1 0.5625
vt 0.875 0.5625
vt 0.875 0.4375
vt 0.75 0.5625
vt 0.875 0.5625
vt 0.875 0.6875
vt 0.75 0.6875
vt 0.875 0.4375
vt 0.875 0.5625
vt 0.75 0.5625
vt 0.75 0.4375
vt 1 0.5625
vt 1 0.6875
vt 0.875 0.6875
vt 0.875 0.5625
vt 1 0.8125
vt 0.875 0.8125
vt 0.875 0.6875
vt 1 0.6875
vn 0.7071067811865475 0 -0.7071067811865476
vn -0.7071067811865475 0 0.7071067811865476
vn 0 1 0
vn 0 -1 0
vn 0.7071067811865476 0 0.7071067811865475
vn -0.7071067811865476 0 -0.7071067811865475
usemtl m_d43446cc-86bb-b640-ca8e-6f33ecf54d05
f 10/25/7 9/26/7 11/27/7 12/28/7
f 15/29/8 13/30/8 14/31/8 16/32/8
f 13/33/9 9/34/9 10/35/9 14/36/9
f 12/37/10 11/38/10 15/39/10 16/40/10
f 11/41/11 9/42/11 13/43/11 15/44/11
f 14/45/12 10/46/12 12/47/12 16/48/12
o cuboid
v -0.015625 -0.4375 0.03125
v -0.015625 -0.4375 -0.09375
v -0.015625 -0.5 0.03125
v -0.015625 -0.5 -0.09375
v -0.109375 -0.4375 0.03125
v -0.109375 -0.4375 -0.09375
v -0.109375 -0.5 0.03125
v -0.109375 -0.5 -0.09375
vt 0.71875 0.8125
vt 0.65625 0.8125
vt 0.65625 0.78125
vt 0.71875 0.78125
vt 0.71875 0.71875
vt 0.71875 0.75
vt 0.65625 0.75
vt 0.65625 0.71875
vt 0.5625 0.9375
vt 0.625 0.9375
vt 0.625 1
vt 0.5625 1
vt 0.125 0.375
vt 0.125 0.4375
vt 0.0625 0.4375
vt 0.0625 0.375
vt 0.375 0.3125
vt 0.375 0.34375
vt 0.3125 0.34375
vt 0.3125 0.3125
vt 0.71875 0.6875
vt 0.65625 0.6875
vt 0.65625 0.65625
vt 0.71875 0.65625
vn 1 0 0
vn -1 0 0
vn 0 1 0
vn 0 -1 0
vn 0 0 1
vn 0 0 -1
usemtl m_d43446cc-86bb-b640-ca8e-6f33ecf54d05
f 18/49/13 17/50/13 19/51/13 20/52/13
f 23/53/14 21/54/14 22/55/14 24/56/14
f 21/57/15 17/58/15 18/59/15 22/60/15
f 20/61/16 19/62/16 23/63/16 24/64/16
f 19/65/17 17/66/17 21/67/17 23/68/17
f 22/69/18 18/70/18 20/71/18 24/72/18
o cuboid
v 0.109375 -0.4375 0.03125
v 0.109375 -0.4375 -0.09375
v 0.109375 -0.5 0.03125
v 0.109375 -0.5 -0.09375
v 0.015625 -0.4375 0.03125
v 0.015625 -0.4375 -0.09375
v 0.015625 -0.5 0.03125
v 0.015625 -0.5 -0.09375
vt 0.71875 0.625
vt 0.65625 0.625
vt 0.65625 0.59375
vt 0.71875 0.59375
vt 0.71875 0.53125
vt 0.71875 0.5625
vt 0.65625 0.5625
vt 0.65625 0.53125
vt 0.5625 0.84375
vt 0.625 0.84375
vt 0.625 0.90625
vt 0.5625 0.90625
vt 0.21875 0.375
vt 0.21875 0.4375
vt 0.15625 0.4375
vt 0.15625 0.375
vt 0.71875 0.46875
vt 0.71875 0.5
vt 0.65625 0.5
vt 0.65625 0.46875
vt 0.46875 0.3125
vt 0.40625 0.3125
vt 0.40625 0.28125
vt 0.46875 0.28125
vn 1 0 0
vn -1 0 0
vn 0 1 0
vn 0 -1 0
vn 0 0 1
vn 0 0 -1
usemtl m_d43446cc-86bb-b640-ca8e-6f33ecf54d05
f 26/73/19 25/74/19 27/75/19 28/76/19
f 31/77/20 29/78/20 30/79/20 32/80/20
f 29/81/21 25/82/21 26/83/21 30/84/21
f 28/85/22 27/86/22 31/87/22 32/88/22
f 27/89/23 25/90/23 29/91/23 31/92/23
f 30/93/24 26/94/24 28/95/24 32/96/24
o cuboid
v 0.09375 -0.4375 0.125
v 0.09375 -0.4375 0.0625
v 0.09375 -0.625 0.125
v 0.09375 -0.625 0.0625
v -0.09375 -0.4375 0.125
v -0.09375 -0.4375 0.0625
v -0.09375 -0.625 0.125
v -0.09375 -0.625 0.0625
vt 0.09375 0.34375
vt 0.0625 0.34375
vt 0.0625 0.25
vt 0.09375 0.25
vt 0.15625 0.25
vt 0.15625 0.34375
vt 0.125 0.34375
vt 0.125 0.25
vt 0.65625 0.84375
vt 0.75 0.84375
vt 0.75 0.875
vt 0.65625 0.875
vt 0.28125 0.3125
vt 0.28125 0.34375
vt 0.1875 0.34375
vt 0.1875 0.3125
vt 0.34375 0.46875
vt 0.34375 0.5625
vt 0.25 0.5625
vt 0.25 0.46875
vt 0.46875 0.5625
vt 0.375 0.5625
vt 0.375 0.46875
vt 0.46875 0.46875
vn 1 0 0
vn -1 0 0
vn 0 1 0
vn 0 -1 0
vn 0 0 1
vn 0 0 -1
usemtl m_d43446cc-86bb-b640-ca8e-6f33ecf54d05
f 34/97/25 33/98/25 35/99/25 36/100/25
f 39/101/26 37/102/26 38/103/26 40/104/26
f 37/105/27 33/106/27 34/107/27 38/108/27
f 36/109/28 35/110/28 39/111/28 40/112/28
f 35/113/29 33/114/29 37/115/29 39/116/29
f 38/117/30 34/118/30 36/119/30 40/120/30
o cuboid
v -0.09375 -0.0625 0.125
v -0.09375 -0.0625 -0.0625
v -0.09375 -0.4375 0.125
v -0.09375 -0.4375 -0.0625
v -0.125 -0.0625 0.125
v -0.125 -0.0625 -0.0625
v -0.125 -0.4375 0.125
v -0.125 -0.4375 -0.0625
vt 0.46875 1
vt 0.375 1
vt 0.375 0.8125
vt 0.46875 0.8125
vt 0.46875 0.59375
vt 0.46875 0.78125
vt 0.375 0.78125
vt 0.375 0.59375
vt 0.625 0.34375
vt 0.65625 0.34375
vt 0.65625 0.4375
vt 0.625 0.4375
vt 0.6875 0.90625
vt 0.6875 1
vt 0.65625 1
vt 0.65625 0.90625
vt 0.53125 0.375
vt 0.53125 0.5625
vt 0.5 0.5625
vt 0.5 0.375
vt 0.03125 0.4375
vt 0 0.4375
vt 0 0.25
vt 0.03125 0.25
vn 1 0 0
vn -1 0 0
vn 0 1 0
vn 0 -1 0
vn 0 0 1
vn 0 0 -1
usemtl m_d43446cc-86bb-b640-ca8e-6f33ecf54d05
f 42/121/31 41/122/31 43/123/31 44/124/31
f 47/125/32 45/126/32 46/127/32 48/128/32
f 45/129/33 41/130/33 42/131/33 46/132/33
f 44/133/34 43/134/34 47/135/34 48/136/34
f 43/137/35 41/138/35 45/139/35 47/140/35
f 46/141/36 42/142/36 44/143/36 48/144/36
o cuboid
v 0.125 -0.0625 0.125
v 0.125 -0.0625 -0.0625
v 0.125 -0.4375 0.125
v 0.125 -0.4375 -0.0625
v 0.09375 -0.0625 0.125
v 0.09375 -0.0625 -0.0625
v 0.09375 -0.4375 0.125
v 0.09375 -0.4375 -0.0625
vt 0.34375 1
vt 0.25 1
vt 0.25 0.8125
vt 0.34375 0.8125
vt 0.34375 0.59375
vt 0.34375 0.78125
vt 0.25 0.78125
vt 0.25 0.59375
vt 0.4375 0.34375
vt 0.46875 0.34375
vt 0.46875 0.4375
vt 0.4375 0.4375
vt 0.59375 0.34375
vt 0.59375 0.4375
vt 0.5625 0.4375
vt 0.5625 0.34375
vt 0.53125 0.8125
vt 0.53125 1
vt 0.5 1
vt 0.5 0.8125
vt 0.53125 0.78125
vt 0.5 0.78125
vt 0.5 0.59375
vt 0.53125 0.59375
vn 1 0 0
vn -1 0 0
vn 0 1 0
vn 0 -1 0
vn 0 0 1
vn 0 0 -1
usemtl m_d43446cc-86bb-b640-ca8e-6f33ecf54d05
f 50/145/37 49/146/37 51/147/37 52/148/37
f 55/149/38 53/150/38 54/151/38 56/152/38
f 53/153/39 49/154/39 50/155/39 54/156/39
f 52/157/40 51/158/40 55/159/40 56/160/40
f 51/161/41 49/162/41 53/163/41 55/164/41
f 54/165/42 50/166/42 52/167/42 56/168/42
o cuboid
v 0.007812500000000028 0.020101990115354573 -0.07382776882255165
v 0.007812500000000028 0.00924897901117143 -0.13537825338581466
v 0.0078125 -0.04144849444790843 -0.0629747577183685
v 0.0078125 -0.05230150555209158 -0.1245252422816315
v -0.007812499999999973 0.020101990115354573 -0.07382776882255165
v -0.007812499999999973 0.00924897901117143 -0.13537825338581466
v -0.0078125 -0.04144849444790842 -0.0629747577183685
v -0.0078125 -0.05230150555209157 -0.1245252422816315
vt 0.625 0.75
vt 0.59375 0.75
vt 0.59375 0.71875
vt 0.625 0.71875
vt 0.59375 0.71875
vt 0.59375 0.75
vt 0.5625 0.75
vt 0.5625 0.71875
vt 0.59375 0.75
vt 0.625 0.75
vt 0.625 0.78125
vt 0.59375 0.78125
vt 0.59375 0.75
vt 0.59375 0.78125
vt 0.5625 0.78125
vt 0.5625 0.75
vt 0.625 0.78125
vt 0.625 0.8125
vt 0.59375 0.8125
vt 0.59375 0.78125
vt 0.59375 0.8125
vt 0.5625 0.8125
vt 0.5625 0.78125
vt 0.59375 0.78125
vn 1 -4.2521578722088997e-16 7.49770159102326e-17
vn -1 4.2521578722088997e-16 -7.49770159102326e-17
vn 4.317754261380381e-16 0.984807753012208 -0.17364817766693033
vn -4.317754261380381e-16 -0.984807753012208 0.17364817766693033
vn 0 0.17364817766693033 0.984807753012208
vn 0 -0.17364817766693033 -0.984807753012208
usemtl m_d43446cc-86bb-b640-ca8e-6f33ecf54d05
f 58/169/43 57/170/43 59/171/43 60/172/43
f 63/173/44 61/174/44 62/175/44 64/176/44
f 61/177/45 57/178/45 58/179/45 62/180/45
f 60/181/46 59/182/46 63/183/46 64/184/46
f 59/185/47 57/186/47 61/187/47 63/188/47
f 62/189/48 58/190/48 60/191/48 64/192/48