# Made in Blockbench 5.0.4
mtllib ladybug.mtl

o cuboid
v 0.03125 0.03125 0.0390625
v 0.03125 0.03125 -0.0390625
v 0.03125 0 0.0390625
v 0.03125 0 -0.0390625
v -0.03125 0.03125 0.0390625
v -0.03125 0.03125 -0.0390625
v -0.03125 0 0.0390625
v -0.03125 0 -0.0390625
vt 0 0.375
vt 0.375 0.375
vt 0.375 0.0625
vt 0 0.0625
vt 0.8125 0.0625
vt 0.8125 0.375
vt 0.4375 0.375
vt 0.4375 0.0625
vt 0.375 0.4375
vt 0.375 1
vt 0 1
vt 0 0.4375
vt 0.875 0.8125
vt 0.875 0.875
vt 0.8125 0.875
vt 0.8125 0.8125
vt 1 0.5625
vt 1 0.75
vt 0.4375 0.75
vt 0.4375 0.5625
vt 1 0.875
vt 0.9375 0.875
vt 0.9375 0.8125
vt 1 0.8125
vn 1 0 0
vn -1 0 0
vn 0 1 0
vn 0 -1 0
vn 0 0 1
vn 0 0 -1
usemtl m_ce6044ca-5764-2ddb-1b42-b8d3ee8a09b6
f 2/1/1 1/2/1 3/3/1 4/4/1
f 7/5/2 5/6/2 6/7/2 8/8/2
f 5/9/3 1/10/3 2/11/3 6/12/3
f 4/13/4 3/14/4 7/15/4 8/16/4
f 3/17/5 1/18/5 5/19/5 7/20/5
f 6/21/6 2/22/6 4/23/6 8/24/6
o plane
v 0.004375000000000004 0.04375 -0.0546875
v 0.004375000000000004 0.04375 -0.0703125
v 0.004374999999999997 0.0125 -0.0546875
v 0.004374999999999997 0.0125 -0.0703125
vt 0.4375 0.5
vt 0.6875 0.5
vt 0.6875 0.375
vt 0.4375 0.375
vn -1 2.220446049250313e-16 0
usemtl m_ce6044ca-5764-2ddb-1b42-b8d3ee8a09b6
f 9/25/7 10/26/7 12/27/7 11/28/7
o plane
v -0.004374999999999997 0.04375 -0.0546875
v -0.004374999999999997 0.04375 -0.0703125
v -0.004375000000000004 0.0125 -0.0546875
v -0.004375000000000004 0.0125 -0.0703125
vt 0.75 0.5
vt 1 0.5
vt 1 0.375
vt 0.75 0.375
vn -1 2.220446049250313e-16 0
usemtl m_ce6044ca-5764-2ddb-1b42-b8d3ee8a09b6
f 13/29/8 14/30/8 16/31/8 15/32/8
o cuboid
v 0.015625 0.015625 -0.0390625
v 0.015625 0.015625 -0.0546875
v 0.015625 0 -0.0390625
v 0.015625 0 -0.0546875
v -0.015625 0.015625 -0.0390625
v -0.015625 0.015625 -0.0546875
v -0.015625 0 -0.0390625
v -0.015625 0 -0.0546875
vt 0.53125 0.9375
vt 0.625 0.9375
vt 0.625 1
vt 0.53125 1
vt 0.625 0.8125
vt 0.625 0.875
vt 0.53125 0.875
vt 0.53125 0.8125
vt 0.5 0.9375
vt 0.5 1
vt 0.40625 1
vt 0.40625 0.9375
vt 0.75 0.8125
vt 0.75 0.875
vt 0.6875 0.875
vt 0.6875 0.8125
vt 0.5 0.8125
vt 0.5 0.875
vt 0.4375 0.875
vt 0.4375 0.8125
vt 0.875 1
vt 0.6875 1
vt 0.6875 0.9375
vt 0.875 0.9375
vn 1 0 0
vn -1 0 0
vn 0 1 0
vn 0 -1 0
vn 0 0 1
vn 0 0 -1
usemtl m_ce6044ca-5764-2ddb-1b42-b8d3ee8a09b6
f 18/33/9 17/34/9 19/35/9 20/36/9
f 23/37/10 21/38/10 22/39/10 24/40/10
f 21/41/11 17/42/11 18/43/11 22/44/11
f 20/45/12 19/46/12 23/47/12 24/48/12
f 19/49/13 17/50/13 21/51/13 23/52/13
f 22/53/14 18/54/14 20/55/14 24/56/14