# Made in Blockbench 5.0.4
mtllib ladybug.mtl

o cuboid
v 0.03125 0.03125 0.0390625
v 0.03125 0.03125 -0.0390625
v 0.03125 0 0.0390625
v 0.03125 0 -0.0390625
v -0.03125 0.03125 0.0390625
v -0.03125 0.03125 -0.0390625
v -0.03125 0 0.0390625
v -0.03125 0 -0.0390625
vt 0.03125 0.9375
vt 0.125 0.9375
vt 0.125 1
vt 0.03125 1
vt 0.125 0.8125
vt 0.125 0.875
vt 0.03125 0.875
vt 0.03125 0.8125
vt 0.24999999999999997 0.9375
vt 0.24999999999999997 1
vt 0.15625 1
vt 0.15625000000000003 0.9375
vt 0.1875 0.8125
vt 0.1875 0.875
vt 0.125 0.875
vt 0.125 0.8125
vt 0.0625 0.6875
vt 0.0625 0.75
vt 0 0.75
vt 0 0.6875
vt 0.3125 1
vt 0.25 1
vt 0.25 0.9375
vt 0.3125 0.9375
vn 1 0 0
vn -1 0 0
vn 0 1 0
vn 0 -1 0
vn 0 0 1
vn 0 0 -1
usemtl m_a9ec46b6-a17b-7874-1e3e-2288ce95f9c1
f 2/1/1 1/2/1 3/3/1 4/4/1
f 7/5/2 5/6/2 6/7/2 8/8/2
f 5/9/3 1/10/3 2/11/3 6/12/3
f 4/13/4 3/14/4 7/15/4 8/16/4
f 3/17/5 1/18/5 5/19/5 7/20/5
f 6/21/6 2/22/6 4/23/6 8/24/6