# Made in Blockbench 5.0.4
mtllib plasma.mtl

o cuboid
v 0.25 0.5 0.25
v 0.25 0.5 -0.25
v 0.25 0 0.25
v 0.25 0 -0.25
v -0.25 0.5 0.25
v -0.25 0.5 -0.25
v -0.25 0 0.25
v -0.25 0 -0.25
vt 0.25 1
vt 0 1
vt 0 0.75
vt 0.25 0.75
vt 0.25 0.46875
vt 0.25 0.71875
vt 0 0.71875
vt 0 0.46875
vt 0.28125 0.75
vt 0.53125 0.75
vt 0.53125 1
vt 0.28125 1
vt 0.53125 0.46875
vt 0.53125 0.71875
vt 0.28125 0.71875
vt 0.28125 0.46875
vt 0.25 0.1875
vt 0.25 0.4375
vt 0 0.4375
vt 0 0.1875
vt 0.8125 1
vt 0.5625 1
vt 0.5625 0.75
vt 0.8125 0.75
vn 1 0 0
vn -1 0 0
vn 0 1 0
vn 0 -1 0
vn 0 0 1
vn 0 0 -1
usemtl m_4f7251de-5eae-dc95-4a75-5a2c1971ec97
f 2/1/1 1/2/1 3/3/1 4/4/1
f 7/5/2 5/6/2 6/7/2 8/8/2
f 5/9/3 1/10/3 2/11/3 6/12/3
f 4/13/4 3/14/4 7/15/4 8/16/4
f 3/17/5 1/18/5 5/19/5 7/20/5
f 6/21/6 2/22/6 4/23/6 8/24/6