# Made in Blockbench 5.0.4
mtllib tuna.mtl

o cuboid
v 0.046875 0.2443242693252299 0.1875
v 0.046875 0.125 0.06817573067477009
v 0.046875 0.125 0.3068242693252299
v 0.046875 0.005675730674770091 0.1875
v -0.046875 0.2443242693252299 0.1875
v -0.046875 0.125 0.06817573067477009
v -0.046875 0.125 0.3068242693252299
v -0.046875 0.005675730674770091 0.1875
vt 0.671875 0.859375
vt 0.5625 0.859375
vt 0.5625 0.75
vt 0.671875 0.75
vt 0.671875 0.609375
vt 0.671875 0.71875
vt 0.5625 0.71875
vt 0.5625 0.609375
vt 0 0.21875
vt 0.078125 0.21875
vt 0.078125 0.328125
vt 0 0.328125
vt 0.75 0.890625
vt 0.75 1
vt 0.671875 1
vt 0.671875 0.890625
vt 0.171875 0.21875
vt 0.171875 0.328125
vt 0.109375 0.328125
vt 0.109375 0.21875
vt 0.28125 0.328125
vt 0.21875 0.328125
vt 0.21875 0.21875
vt 0.28125 0.21875
vn 1 0 0
vn -1 0 0
vn 0 0.7071067811865475 -0.7071067811865476
vn 0 -0.7071067811865475 0.7071067811865476
vn 0 0.7071067811865476 0.7071067811865475
vn 0 -0.7071067811865476 -0.7071067811865475
usemtl m_0614cc4f-fccf-8938-d0e6-ef52955d406c
f 2/1/1 1/2/1 3/3/1 4/4/1
f 7/5/2 5/6/2 6/7/2 8/8/2
f 5/9/3 1/10/3 2/11/3 6/12/3
f 4/13/4 3/14/4 7/15/4 8/16/4
f 3/17/5 1/18/5 5/19/5 7/20/5
f 6/21/6 2/22/6 4/23/6 8/24/6
o plane
v 4.163336342344337e-17 0.30177669529663687 0.4375
v 4.163336342344337e-17 0.125 0.26072330470336313
v -4.163336342344337e-17 0.125 0.6142766952966369
v -4.163336342344337e-17 -0.051776695296636865 0.4375
vt 0.671875 0.46875
vt 0.671875 0.578125
vt 0.5625 0.578125
vt 0.5625 0.46875
vn -1 2.3551386880256634e-16 -2.355138688025663e-16
usemtl m_0614cc4f-fccf-8938-d0e6-ef52955d406c
f 9/25/7 10/26/7 12/27/7 11/28/7
o plane
v 5.204170427930421e-17 0.3459708691207961 0.06250000000000001
v 5.204170427930421e-17 0.125 -0.1584708691207961
v -5.204170427930421e-17 0.125 0.2834708691207961
v -5.204170427930421e-17 -0.09597086912079608 0.062499999999999986
vt 0.5 0.8125
vt 0.5 1
vt 0.3125 1
vt 0.3125 0.8125
vn -1 2.3551386880256634e-16 -2.355138688025663e-16
usemtl m_0614cc4f-fccf-8938-d0e6-ef52955d406c
f 13/29/8 14/30/8 16/31/8 15/32/8
o plane
v 5.593213392440788e-17 0.3529475158887083 -0.1657343478261867
v 4.205434611659342e-17 0.16143640510896382 -0.3264312502478215
v -2.7334592922478865e-17 0.1922506134670735 0.025776762953557783
v -4.121238073029332e-17 0.00073950268732903 -0.13492013946807702
vt 0.25 0.5
vt 0.25 0.640625
vt 0.109375 0.640625
vt 0.109375 0.5
vn -1 2.566152901971716e-16 -2.194621733801655e-16
usemtl m_0614cc4f-fccf-8938-d0e6-ef52955d406c
f 17/33/9 18/34/9 20/35/9 19/36/9
o plane
v -0.13904655337799723 0.1691941757016622 -0.09374999442338693
v -0.06250000565470096 0.1250000013589969 -0.18213834764831827
v -0.06249999434529904 0.12499999864100311 -0.005361652351681748
v 0.014046553377997234 0.0808058242983378 -0.09375000557661307
vt 0.75 0.359375
vt 0.75 0.4375
vt 0.671875 0.4375
vt 0.671875 0.359375
vn -0.5000000212415213 -0.8660253915206402 1.8672424967336454e-8
usemtl m_0614cc4f-fccf-8938-d0e6-ef52955d406c
f 21/37/10 22/38/10 24/39/10 23/40/10
o plane
v 0.011717948335312381 0.04261120076775919 -0.14709708799490823
v 0.04557264839104534 0.014203730835668279 -0.19129126109718164
v 0.07942735160895466 -0.014203730835668279 -0.05870873890281836
v 0.11328205166468762 -0.04261120076775919 -0.10290291200509177
vt 0.78125 0.828125
vt 0.78125 0.859375
vt 0.703125 0.859375
vt 0.703125 0.828125
vn -0.6427876212808186 -0.7660444333902212 4.7295333177599375e-8
usemtl m_0614cc4f-fccf-8938-d0e6-ef52955d406c
f 25/41/11 26/42/11 28/43/11 27/44/11
o plane
v -0.11328205087414353 -0.042611202832947774 -0.10290291417074907
v -0.04557265076267761 0.014203737031234042 -0.19129126037529587
v -0.07942734923732239 -0.014203737031234042 -0.05870873962470413
v -0.01171794912585647 0.042611202832947774 -0.14709708582925093
vt 0.53125 0.296875
vt 0.53125 0.359375
vt 0.5 0.359375
vt 0.5 0.296875
vn 0.6427876212808186 -0.7660444333902212 -4.7295333177599375e-8
usemtl m_0614cc4f-fccf-8938-d0e6-ef52955d406c
f 29/45/12 30/46/12 32/47/12 31/48/12
o plane
v -0.014046553377997234 0.0808058242983378 -0.09374999442338693
v 0.06249999434529904 0.12499999864100311 -0.18213834764831827
v 0.06250000565470096 0.1250000013589969 -0.005361652351681748
v 0.13904655337799723 0.1691941757016622 -0.09375000557661307
vt 0.75 0.25
vt 0.75 0.328125
vt 0.671875 0.328125
vt 0.671875 0.25
vn 0.5000000212415213 -0.8660253915206402 -1.8672424967336454e-8
usemtl m_0614cc4f-fccf-8938-d0e6-ef52955d406c
f 33/49/13 34/50/13 36/51/13 35/52/13
o cuboid
v 0.0778125 0.16919417382415922 -0.4
v 0.0778125 0.125 -0.44419417382415927
v 0.0778125 0.125 -0.3558058261758408
v 0.0778125 0.08080582617584078 -0.4
v -0.0778125 0.16919417382415922 -0.4
v -0.0778125 0.125 -0.44419417382415927
v -0.0778125 0.125 -0.3558058261758408
v -0.0778125 0.08080582617584078 -0.4
vt 1 0.875
vt 0.890625 0.875
vt 0.890625 0.765625
vt 1 0.765625
vt 1 0.640625
vt 1 0.75
vt 0.890625 0.75
vt 0.890625 0.640625
vt 0.890625 0.515625
vt 1 0.515625
vt 1 0.625
vt 0.890625 0.625
vt 1 0.8934659375
vt 1 1
vt 0.890625 1
vt 0.890625 0.8934659375
vt 1 0.265625
vt 1 0.375
vt 0.890625 0.375
vt 0.890625 0.265625
vt 1 0.5
vt 0.890625 0.5
vt 0.890625 0.390625
vt 1 0.390625
vn 1 0 0
vn -1 0 0
vn 0 0.7071067811865475 -0.7071067811865476
vn 0 -0.7071067811865475 0.7071067811865476
vn 0 0.7071067811865476 0.7071067811865475
vn 0 -0.7071067811865476 -0.7071067811865475
usemtl m_0614cc4f-fccf-8938-d0e6-ef52955d406c
f 38/53/14 37/54/14 39/55/14 40/56/14
f 43/57/15 41/58/15 42/59/15 44/60/15
f 41/61/16 37/62/16 38/63/16 42/64/16
f 40/65/17 39/66/17 43/67/17 44/68/17
f 39/69/18 37/70/18 41/71/18 43/72/18
f 42/73/19 38/74/19 40/75/19 44/76/19
o cuboid
v 0.0625 0.25 0.1875
v 0.0625 0.25 -0.3125
v 0.0625 0 0.1875
v 0.0625 0 -0.3125
v -0.0625 0.25 0.1875
v -0.0625 0.25 -0.3125
v -0.0625 0 0.1875
v -0.0625 0 -0.3125
vt 0.28125 1
vt 0 1
vt 0 0.859375
vt 0.28125 0.859375
vt 0.28125 0.6875
vt 0.28125 0.828125
vt 0 0.828125
vt 0 0.6875
vt 0.3125 0.5
vt 0.390625 0.5
vt 0.390625 0.78125
vt 0.3125 0.78125
vt 0.078125 0.359375
vt 0.078125 0.640625
vt 0 0.640625
vt 0 0.359375
vt 0.640625 0.29545453125
vt 0.640625 0.4375
vt 0.5625 0.4375
vt 0.5625 0.29545453125
vt 0.46875 0.359375
vt 0.390625 0.359375
vt 0.390625 0.21875
vt 0.46875 0.21875
vn 1 0 0
vn -1 0 0
vn 0 1 0
vn 0 -1 0
vn 0 0 1
vn 0 0 -1
usemtl m_0614cc4f-fccf-8938-d0e6-ef52955d406c
f 46/77/20 45/78/20 47/79/20 48/80/20
f 51/81/21 49/82/21 50/83/21 52/84/21
f 49/85/22 45/86/22 46/87/22 50/88/22
f 48/89/23 47/90/23 51/91/23 52/92/23
f 47/93/24 45/94/24 49/95/24 51/96/24
f 50/97/25 46/98/25 48/99/25 52/100/25
o cuboid
v 0.078125 0.2575825214724777 -0.3125
v 0.078125 0.12499999999999999 -0.4450825214724777
v 0.078125 0.125 -0.17991747852752232
v 0.078125 -0.007582521472477677 -0.3125
v -0.078125 0.2575825214724777 -0.3125
v -0.078125 0.12499999999999999 -0.4450825214724777
v -0.078125 0.125 -0.17991747852752232
v -0.078125 -0.007582521472477677 -0.3125
vt 0.53125 0.78125
vt 0.421875 0.78125
vt 0.421875 0.671875
vt 0.53125 0.671875
vt 0.53125 0.53125
vt 0.53125 0.640625
vt 0.421875 0.640625
vt 0.421875 0.53125
vt 0.421875 0.390625
vt 0.53125 0.390625
vt 0.53125 0.5
vt 0.421875 0.5
vt 0.53125 0.890625
vt 0.53125 1
vt 0.53125 1
vt 0.53125 0.890625
vt 0.21875 0.359375
vt 0.21875 0.46875
vt 0.109375 0.46875
vt 0.109375 0.359375
vt 0.359375 0.46875
vt 0.25 0.46875
vt 0.25 0.359375
vt 0.359375 0.359375
vn 1 0 0
vn -1 0 0
vn 0 0.7071067811865475 -0.7071067811865476
vn 0 -0.7071067811865475 0.7071067811865476
vn 0 0.7071067811865476 0.7071067811865475
vn 0 -0.7071067811865476 -0.7071067811865475
usemtl m_0614cc4f-fccf-8938-d0e6-ef52955d406c
f 54/101/26 53/102/26 55/103/26 56/104/26
f 59/105/27 57/106/27 58/107/27 60/108/27
f 57/109/28 53/110/28 54/111/28 58/112/28
f 56/113/29 55/114/29 59/115/29 60/116/29
f 55/117/30 53/118/30 57/119/30 59/120/30
f 58/121/31 54/122/31 56/123/31 60/124/31