# Made in Blockbench 5.0.4
mtllib appleleaves.mtl

o plane
v 0.48842288739872236 0.3915469011715548 0.41543619515883273
v 0.5478189632393288 -0.16766315109040408 -0.48604174335320555
v -0.5478189632393288 0.16766315109040408 0.48604174335320555
v -0.48842288739872236 -0.3915469011715548 -0.41543619515883273
vt 0.5 0
vt 0.5 1
vt 0 1
vt 0 0
vn -0.21375521110389778 0.8237667873818302 -0.5250876019604221
usemtl m_89ab83df-4fb5-d0b2-eb99-47e10ebdb5ff
f 1/1/1 2/2/1 4/3/1 3/4/1
o plane
v -0.43966281800960205 -0.4318205422475181 0.4297449833947047
v -0.02001643009605228 -0.5194434528600901 -0.5424306101309155
v 0.02001643009605228 0.5194434528600901 0.5424306101309155
v 0.43966281800960205 0.4318205422475181 -0.4297449833947047
vt 0.5 0
vt 0.5 1
vt 0 1
vt 0 0
vn 0.8104497574040918 -0.4377485394275661 0.3892909027355783
usemtl m_89ab83df-4fb5-d0b2-eb99-47e10ebdb5ff
f 5/5/2 6/6/2 8/7/2 7/8/2
o plane
v 0.5413947142064743 -0.5209026701759978 0.002301441462573689
v -0.4174499371431051 -0.43187828846775367 0.4512979270164903
v 0.4174499371431051 0.43187828846775367 -0.4512979270164903
v -0.5413947142064743 0.5209026701759978 -0.002301441462573689
vt 0.5 0
vt 0.5 1
vt 0 1
vt 0 0
vn -0.4147170814722964 -0.43456407263748786 -0.7994772098739407
usemtl m_89ab83df-4fb5-d0b2-eb99-47e10ebdb5ff
f 9/9/3 10/10/3 12/11/3 11/12/3
o plane
v 0.3546499810528623 -0.3671169505451498 0.5512727642117236
v 0.5425260870502067 -0.19768054359526332 -0.4806672160173532
v -0.5425260870502067 0.19768054359526332 0.4806672160173532
v -0.3546499810528623 0.3671169505451498 -0.5512727642117236
vt 0.5 0
vt 0.5 1
vt 0 1
vt 0 0
vn 0.5056876640907151 0.8318644257987302 0.22865162032451272
usemtl m_89ab83df-4fb5-d0b2-eb99-47e10ebdb5ff
f 13/13/4 14/14/4 16/15/4 15/16/4
o plane
v -4.814291326704634e-15 0.6154297131732942 0.43092852440217594
v -3.207070026212122e-15 0.43092852440217594 -0.6154297131732942
v 3.207070026212122e-15 -0.43092852440217594 0.6154297131732942
v 4.814291326704634e-15 -0.6154297131732942 -0.43092852440217594
vt 0.5 0
vt 0.5 1
vt 0 1
vt 0 0
vn -1 -7.697496376473332e-15 -1.7873808582533154e-16
usemtl m_89ab83df-4fb5-d0b2-eb99-47e10ebdb5ff
f 17/17/5 18/18/5 20/19/5 19/20/5
o plane
v 0.4309285244021803 0.6154297131732911 -1.2179493524833163e-14
v 0.6154297131732911 -0.4309285244021803 -1.5629858518551032e-15
v -0.6154297131732911 0.4309285244021803 1.5629858518551032e-15
v -0.4309285244021803 -0.6154297131732911 1.2179493524833163e-14
vt 0.5 0
vt 0.5 1
vt 0 1
vt 0 0
vn -1.1002506376633783e-14 -1.2086188768611436e-14 -1
usemtl m_89ab83df-4fb5-d0b2-eb99-47e10ebdb5ff
f 21/21/6 22/22/6 24/23/6 23/24/6