# Made in Blockbench 5.0.4
mtllib chippedstoneknife.mtl

o cuboid
v -0.049999999999999885 -0.006250000000000089 -0.03125000000000034
v 0.07500000000000011 -0.006250000000000089 -0.031250000000000354
v -0.049999999999999885 -0.006249999999999978 0.031249999999999646
v 0.07500000000000011 -0.006249999999999978 0.031249999999999632
v -0.04999999999999995 -0.20625000000000013 -0.03125000000000001
v 0.07500000000000004 -0.20625000000000013 -0.03125000000000002
v -0.04999999999999995 -0.20625000000000002 0.03124999999999998
v 0.07500000000000004 -0.20625000000000002 0.031249999999999965
vt 0.75 0.375
vt 0.75 0.6875
vt 0.625 0.6875
vt 0.625 0.375
vt 0.25 0.375
vt 0.3125 0.375
vt 0.3125 0.6875
vt 0.25 0.6875
vt 0.25 0.3749999999999999
vt 0.75 0.3750000000000001
vt 0.75 0.6875
vt 0.25 0.6875
vt 0.75 0.75
vt 0.75 0.375
vt 0.25 0.375
vt 0.25 0.75
vt 0.75 0.375
vt 0.75 0.5
vt 0.25 0.5
vt 0.25 0.375
vt 0.75 0.75
vt 0.25 0.75
vt 0.25 0.625
vt 0.75 0.625
vn 1.6653345369377333e-16 1 -1.5543122344752196e-15
vn -1.6653345369377333e-16 -1 1.5543122344752196e-15
vn -1.1102230246251595e-16 -1.665334536937735e-15 -1
vn 1.1102230246251595e-16 1.665334536937735e-15 1
vn -1 3.33066907387547e-16 -5.176899690512893e-31
vn 1 -3.33066907387547e-16 5.176899690512893e-31
usemtl m_a6f6de6c-c6bc-9ebb-0dfa-d6f5de9e2609
f 2/1/1 1/2/1 3/3/1 4/4/1
f 7/5/2 5/6/2 6/7/2 8/8/2
f 5/9/3 1/10/3 2/11/3 6/12/3
f 4/13/4 3/14/4 7/15/4 8/16/4
f 3/17/5 1/18/5 5/19/5 7/20/5
f 6/21/6 2/22/6 4/23/6 8/24/6
o cuboid
v -0.07499999999999987 -0.031250000000000056 -0.015625000000000302
v -0.04999999999999989 -0.031250000000000056 -0.015625000000000302
v -0.07499999999999987 -0.031250000000000056 0.015624999999999693
v -0.04999999999999989 -0.031250000000000056 0.01562499999999969
v -0.07499999999999993 -0.18125000000000008 -0.015625000000000052
v -0.04999999999999994 -0.18125000000000008 -0.015625000000000052
v -0.07499999999999993 -0.18125000000000002 0.015624999999999943
v -0.04999999999999994 -0.18125000000000002 0.01562499999999994
vt 0.4375 0.3125
vt 0.4375 0.375
vt 0.3125 0.375
vt 0.3125 0.3125
vt 0.5625 0.3125
vt 0.6875 0.3125
vt 0.6875 0.375
vt 0.5625 0.375
vt 0.6875 0.375
vt 0.3125 0.375
vt 0.3125 0.3125
vt 0.6875 0.3125
vt 0.3125 0.3125
vt 0.3125 0.375
vt 0.6875 0.375
vt 0.6875 0.3125
vt 0.6875 0.3125
vt 0.6875 0.4375
vt 0.3125 0.4375
vt 0.3125 0.3125
vt 0.6875 0.375
vt 0.3125 0.375
vt 0.3125 0.3125
vt 0.6875 0.3125
vn 1.6653345369377333e-16 1 -1.5543122344752196e-15
vn -1.6653345369377333e-16 -1 1.5543122344752196e-15
vn -1.1102230246251595e-16 -1.665334536937735e-15 -1
vn 1.1102230246251595e-16 1.665334536937735e-15 1
vn -1 3.33066907387547e-16 -5.176899690512893e-31
vn 1 -3.33066907387547e-16 5.176899690512893e-31
usemtl m_a6f6de6c-c6bc-9ebb-0dfa-d6f5de9e2609
f 10/25/7 9/26/7 11/27/7 12/28/7
f 15/29/8 13/30/8 14/31/8 16/32/8
f 13/33/9 9/34/9 10/35/9 14/36/9
f 12/37/10 11/38/10 15/39/10 16/40/10
f 11/41/11 9/42/11 13/43/11 15/44/11
f 14/45/12 10/46/12 12/47/12 16/48/12
o cuboid
v -0.02499999999999995 -0.2062500000000001 -0.015625000000000014
v 0.050000000000000044 -0.2062500000000001 -0.015625000000000024
v -0.02499999999999995 -0.20625000000000004 0.01562499999999998
v 0.050000000000000044 -0.20625000000000004 0.01562499999999997
v -0.024999999999999956 -0.23125 -0.015624999999999972
v 0.05000000000000003 -0.23125 -0.015624999999999981
v -0.024999999999999956 -0.23124999999999996 0.01562500000000002
v 0.05000000000000003 -0.23124999999999996 0.01562500000000001
vt 0.375 0.4375
vt 0.375 0.625
vt 0.25 0.625
vt 0.25 0.4375
vt 0.1875 0.4375
vt 0.3125 0.4375
vt 0.3125 0.6875
vt 0.1875 0.6875
vt 0.25 0.625
vt 0.1875 0.625
vt 0.1875 0.4375
vt 0.25 0.4375
vt 0.1875 0.4375
vt 0.1875 0.625
vt 0.25 0.625
vt 0.25 0.4375
vt 0.25 0.4375
vt 0.25 0.5625
vt 0.1875 0.5625
vt 0.1875 0.4375
vt 0.25 0.6875
vt 0.1875 0.6875
vt 0.1875 0.5625
vt 0.25 0.5625
vn 1.6653345369377333e-16 1 -1.5543122344752196e-15
vn -1.6653345369377333e-16 -1 1.5543122344752196e-15
vn -1.1102230246251595e-16 -1.665334536937735e-15 -1
vn 1.1102230246251595e-16 1.665334536937735e-15 1
vn -1 3.33066907387547e-16 -5.176899690512893e-31
vn 1 -3.33066907387547e-16 5.176899690512893e-31
usemtl m_a6f6de6c-c6bc-9ebb-0dfa-d6f5de9e2609
f 18/49/13 17/50/13 19/51/13 20/52/13
f 23/53/14 21/54/14 22/55/14 24/56/14
f 21/57/15 17/58/15 18/59/15 22/60/15
f 20/61/16 19/62/16 23/63/16 24/64/16
f 19/65/17 17/66/17 21/67/17 23/68/17
f 22/69/18 18/70/18 20/71/18 24/72/18
o cuboid
v -0.024999999999999873 0.01874999999999999 -0.01562500000000039
v 0.050000000000000114 0.01874999999999999 -0.0156250000000004
v -0.024999999999999873 0.01874999999999999 0.015624999999999604
v 0.050000000000000114 0.01874999999999999 0.015624999999999596
v -0.024999999999999883 -0.006250000000000033 -0.015625000000000347
v 0.05000000000000011 -0.006250000000000033 -0.015625000000000357
v -0.024999999999999883 -0.006250000000000033 0.015624999999999646
v 0.05000000000000011 -0.006250000000000033 0.015624999999999637
vt 0.8125 0.4375
vt 0.8125 0.625
vt 0.6875 0.625
vt 0.6875 0.4375
vt 0.6875 0.4375
vt 0.8125 0.4375
vt 0.8125 0.625
vt 0.6875 0.625
vt 0.75 0.625
vt 0.6875 0.625
vt 0.6875 0.4375
vt 0.75 0.4375
vt 0.75 0.4375
vt 0.75 0.625
vt 0.8125 0.625
vt 0.8125 0.4375
vt 0.8125 0.4375
vt 0.8125 0.5625
vt 0.75 0.5625
vt 0.75 0.4375
vt 0.8125 0.6875
vt 0.75 0.6875
vt 0.75 0.5625
vt 0.8125 0.5625
vn 1.6653345369377333e-16 1 -1.5543122344752196e-15
vn -1.6653345369377333e-16 -1 1.5543122344752196e-15
vn -1.1102230246251595e-16 -1.665334536937735e-15 -1
vn 1.1102230246251595e-16 1.665334536937735e-15 1
vn -1 3.33066907387547e-16 -5.176899690512893e-31
vn 1 -3.33066907387547e-16 5.176899690512893e-31
usemtl m_a6f6de6c-c6bc-9ebb-0dfa-d6f5de9e2609
f 26/73/19 25/74/19 27/75/19 28/76/19
f 31/77/20 29/78/20 30/79/20 32/80/20
f 29/81/21 25/82/21 26/83/21 30/84/21
f 28/85/22 27/86/22 31/87/22 32/88/22
f 27/89/23 25/90/23 29/91/23 31/92/23
f 30/93/24 26/94/24 28/95/24 32/96/24
o cuboid
v 1.2906342661267443e-16 0.0437499999999999 -0.007812500000000435
v 0.05000000000000013 0.0437499999999999 -0.00781250000000044
v 1.2906342661267443e-16 0.0437499999999999 0.007812499999999561
v 0.05000000000000013 0.0437499999999999 0.007812499999999556
v 1.207367539279858e-16 0.01874999999999999 -0.007812500000000394
v 0.050000000000000114 0.01874999999999999 -0.007812500000000399
v 1.207367539279858e-16 0.01874999999999999 0.007812499999999603
v 0.050000000000000114 0.01874999999999999 0.0078124999999995975
vt 0.875 0.5625
vt 0.875 0.6875
vt 0.75 0.6875
vt 0.75 0.5625
vt 0.75 0.5625
vt 0.875 0.5625
vt 0.875 0.6875
vt 0.75 0.6875
vt 0.875 0.625
vt 0.8125 0.625
vt 0.8125 0.5
vt 0.875 0.5
vt 0.8125 0.5625
vt 0.8125 0.6875
vt 0.875 0.6875
vt 0.875 0.5625
vt 0.8125 0.5
vt 0.8125 0.625
vt 0.75 0.625
vt 0.75 0.5
vt 0.875 0.6875
vt 0.8125 0.6875
vt 0.8125 0.5625
vt 0.875 0.5625
vn 1.6653345369377333e-16 1 -1.5543122344752196e-15
vn -1.6653345369377333e-16 -1 1.5543122344752196e-15
vn -1.1102230246251595e-16 -1.665334536937735e-15 -1
vn 1.1102230246251595e-16 1.665334536937735e-15 1
vn -1 3.33066907387547e-16 -5.176899690512893e-31
vn 1 -3.33066907387547e-16 5.176899690512893e-31
usemtl m_a6f6de6c-c6bc-9ebb-0dfa-d6f5de9e2609
f 34/97/25 33/98/25 35/99/25 36/100/25
f 39/101/26 37/102/26 38/103/26 40/104/26
f 37/105/27 33/106/27 34/107/27 38/108/27
f 36/109/28 35/110/28 39/111/28 40/112/28
f 35/113/29 33/114/29 37/115/29 39/116/29
f 38/117/30 34/118/30 36/119/30 40/120/30
o cuboid
v -0.03437499999999995 -0.18750000000000006 -0.023437500000000045
v 0.05937500000000004 -0.18750000000000006 -0.023437500000000056
v -0.03437499999999995 -0.1875 0.023437499999999944
v 0.05937500000000004 -0.1875 0.023437499999999934
v -0.034375000000000044 -0.5 -0.023437499999999525
v 0.05937499999999994 -0.5 -0.023437499999999535
v -0.034375000000000044 -0.49999999999999994 0.023437500000000465
v 0.05937499999999994 -0.49999999999999994 0.023437500000000454
vt 0.06250000000000003 0.9375
vt 0 0.9375
vt 0 0.8125
vt 0.06250000000000003 0.8125
vt 0.0625 0.8125
vt 0.0625 0.9375
vt 0 0.9375
vt 0 0.8125
vt 0 0.8125
vt 0.4375 0.8125
vt 0.4375 0.9375
vt 0 0.9375
vt 0.4375 0.8125
vt 0.4375 0.9375
vt 0 0.9375
vt 0 0.8125
vt 0.4375 0.75
vt 0.4375 0.8125
vt 0 0.8125
vt 0 0.75
vt 2.42861286636753e-17 0.9375
vt 0.4375 0.9375
vt 0.4375 1
vt 0 1
vn 1.6653345369377333e-16 1 -1.5543122344752196e-15
vn -1.6653345369377333e-16 -1 1.5543122344752196e-15
vn -1.1102230246251595e-16 -1.665334536937735e-15 -1
vn 1.1102230246251595e-16 1.665334536937735e-15 1
vn -1 3.33066907387547e-16 -5.176899690512893e-31
vn 1 -3.33066907387547e-16 5.176899690512893e-31
usemtl m_a6f6de6c-c6bc-9ebb-0dfa-d6f5de9e2609
f 42/121/31 41/122/31 43/123/31 44/124/31
f 47/125/32 45/126/32 46/127/32 48/128/32
f 45/129/33 41/130/33 42/131/33 46/132/33
f 44/133/34 43/134/34 47/135/34 48/136/34
f 43/137/35 41/138/35 45/139/35 47/140/35
f 46/141/36 42/142/36 44/143/36 48/144/36