# Made in Blockbench 5.0.4
mtllib flame.mtl

o cuboid
v 0.1603419248595387 1.3567179845506379 0.5
v 0.1603419248595387 1.3567179845506379 -0.5
v -0.5236983617917986 -0.5226672570211792 0.5
v -0.5236983617917986 -0.5226672570211792 -0.5
vt 1 -1.0625
vt 1 -0.0625
vt 0 -0.0625
vt 0 -1.0625
vn -0.9396926207859084 0.34202014332566866 0
usemtl m_6f31ed3e-a774-5643-7db2-65c01ab6dbe0
f 3/1/1 1/2/1 2/3/1 4/4/1
o cuboid
v -0.5000000000000001 1.3567177951059854 0.1603419455944932
v 0.4999999999999998 1.3567177951059854 0.16034194559449297
v -0.5 -0.5226674464658314 -0.5236983410568441
v 0.49999999999999983 -0.5226674464658313 -0.5236983410568443
vt 1 -1.0625
vt 1 -0.0625
vt 0 -0.0625
vt 0 -1.0625
vn -2.3713257458380586e-16 0.34202014332566866 -0.9396926207859085
usemtl m_6f31ed3e-a774-5643-7db2-65c01ab6dbe0
f 7/5/2 5/6/2 6/7/2 8/8/2
o cuboid
v -0.16034192485953908 1.3567179845506374 -0.49999999999999967
v -0.16034192485953908 1.3567179845506374 0.5000000000000001
v 0.5236983617917985 -0.5226672570211791 -0.4999999999999999
v 0.5236983617917985 -0.5226672570211792 0.4999999999999999
vt 1 -1.0625
vt 1 -0.0625
vt 0 -0.0625
vt 0 -1.0625
vn 0.9396926207859083 0.3420201433256689 4.1885387376769936e-17
usemtl m_6f31ed3e-a774-5643-7db2-65c01ab6dbe0
f 11/9/3 9/10/3 10/11/3 12/12/3
o cuboid
v 0.49999999999999983 1.3567175866874017 -0.16034169036199467
v -0.5 1.3567175866874017 -0.1603416903619949
v 0.4999999999999999 -0.5226676548844151 0.5236985962893427
v -0.5 -0.5226676548844152 0.5236985962893425
vt 1 -1.0625
vt 1 -0.0625
vt 0 -0.0625
vt 0 -1.0625
vn -2.3713257458380586e-16 0.34202014332566866 0.9396926207859085
usemtl m_6f31ed3e-a774-5643-7db2-65c01ab6dbe0
f 15/13/4 13/14/4 14/15/4 16/16/4