# Made in Blockbench 5.0.4
mtllib grassleaves.mtl

o cuboid
v -0.03601741444943263 -0.4619267823890638 0.01353841172640809
v -0.03641794968821749 -0.46166264597547585 0.013137876487623223
v -0.017974235128829556 -0.5019803062675505 -0.030918408952988797
v -0.01837477036761443 -0.5017161698539626 -0.03131894419177366
v -0.08047423512882948 -0.5019803062675505 0.03158159104701127
v -0.08087477036761434 -0.5017161698539626 0.031181055808226405
v -0.06243105580822641 -0.5420338301460373 -0.012875229632385615
v -0.06283159104701128 -0.5417696937324494 -0.013275764871170482
vt 0.0625 1
vt 0 1
vt 0 0.9375
vt 0.0625 0.9375
vt 0.0625 0.8125
vt 0.0625 0.875
vt 0 0.875
vt 0 0.8125
vt 0.125 0.9375
vt 0.1875 0.9375
vt 0.1875 1
vt 0.125 1
vt 0.1875 0.8125
vt 0.1875 0.875
vt 0.125 0.875
vt 0.125 0.8125
vt 0.0625 0.6875
vt 0.0625 0.75
vt 0 0.75
vt 0 0.6875
vt 0.3125 1
vt 0.25 1
vt 0.25 0.9375
vt 0.3125 0.9375
vn 0.7113091308703496 0.6408563820557884 -0.2886908691296509
vn -0.7113091308703496 -0.6408563820557884 0.2886908691296509
vn -0.2886908691296491 0.6408563820557884 0.7113091308703503
vn 0.2886908691296491 -0.6408563820557884 -0.7113091308703503
vn 0.6408563820557892 -0.4226182617407 0.6408563820557877
vn -0.6408563820557892 0.4226182617407 -0.6408563820557877
usemtl m_009dc320-1756-3914-9858-1488a35073a0
f 2/1/1 1/2/1 3/3/1 4/4/1
f 7/5/2 5/6/2 6/7/2 8/8/2
f 5/9/3 1/10/3 2/11/3 6/12/3
f 4/13/4 3/14/4 7/15/4 8/16/4
f 3/17/5 1/18/5 5/19/5 7/20/5
f 6/21/6 2/22/6 4/23/6 8/24/6
o cuboid
v -0.3485174144494326 -0.4619267823890638 0.1385384117264081
v -0.3489179496882175 -0.46166264597547585 0.1381378764876232
v -0.33047423512882956 -0.5019803062675505 0.0940815910470112
v -0.3308747703676144 -0.5017161698539626 0.09368105580822633
v -0.39297423512882945 -0.5019803062675505 0.15658159104701128
v -0.39337477036761437 -0.5017161698539626 0.15618105580822642
v -0.3749310558082264 -0.5420338301460373 0.11212477036761438
v -0.3753315910470113 -0.5417696937324494 0.11172423512882952
vt 0.0625 1
vt 0 1
vt 0 0.9375
vt 0.0625 0.9375
vt 0.0625 0.8125
vt 0.0625 0.875
vt 0 0.875
vt 0 0.8125
vt 0.125 0.9375
vt 0.1875 0.9375
vt 0.1875 1
vt 0.125 1
vt 0.1875 0.8125
vt 0.1875 0.875
vt 0.125 0.875
vt 0.125 0.8125
vt 0.0625 0.6875
vt 0.0625 0.75
vt 0 0.75
vt 0 0.6875
vt 0.3125 1
vt 0.25 1
vt 0.25 0.9375
vt 0.3125 0.9375
vn 0.7113091308703496 0.6408563820557884 -0.2886908691296509
vn -0.7113091308703496 -0.6408563820557884 0.2886908691296509
vn -0.2886908691296491 0.6408563820557884 0.7113091308703503
vn 0.2886908691296491 -0.6408563820557884 -0.7113091308703503
vn 0.6408563820557892 -0.4226182617407 0.6408563820557877
vn -0.6408563820557892 0.4226182617407 -0.6408563820557877
usemtl m_009dc320-1756-3914-9858-1488a35073a0
f 10/25/7 9/26/7 11/27/7 12/28/7
f 15/29/8 13/30/8 14/31/8 16/32/8
f 13/33/9 9/34/9 10/35/9 14/36/9
f 12/37/10 11/38/10 15/39/10 16/40/10
f 11/41/11 9/42/11 13/43/11 15/44/11
f 14/45/12 10/46/12 12/47/12 16/48/12
o cuboid
v 0.15148258555056737 -0.4619267823890638 0.3885384117264081
v 0.1510820503117825 -0.46166264597547585 0.3881378764876232
v 0.16952576487117044 -0.5019803062675505 0.3440815910470112
v 0.16912522963238558 -0.5017161698539626 0.34368105580822633
v 0.10702576487117052 -0.5019803062675505 0.40658159104701125
v 0.10662522963238566 -0.5017161698539626 0.4061810558082264
v 0.12506894419177358 -0.5420338301460373 0.36212477036761437
v 0.12466840895298872 -0.5417696937324494 0.3617242351288295
vt 0.0625 1
vt 0 1
vt 0 0.9375
vt 0.0625 0.9375
vt 0.0625 0.8125
vt 0.0625 0.875
vt 0 0.875
vt 0 0.8125
vt 0.125 0.9375
vt 0.1875 0.9375
vt 0.1875 1
vt 0.125 1
vt 0.1875 0.8125
vt 0.1875 0.875
vt 0.125 0.875
vt 0.125 0.8125
vt 0.0625 0.6875
vt 0.0625 0.75
vt 0 0.75
vt 0 0.6875
vt 0.3125 1
vt 0.25 1
vt 0.25 0.9375
vt 0.3125 0.9375
vn 0.7113091308703496 0.6408563820557884 -0.2886908691296509
vn -0.7113091308703496 -0.6408563820557884 0.2886908691296509
vn -0.2886908691296491 0.6408563820557884 0.7113091308703503
vn 0.2886908691296491 -0.6408563820557884 -0.7113091308703503
vn 0.6408563820557892 -0.4226182617407 0.6408563820557877
vn -0.6408563820557892 0.4226182617407 -0.6408563820557877
usemtl m_009dc320-1756-3914-9858-1488a35073a0
f 18/49/13 17/50/13 19/51/13 20/52/13
f 23/53/14 21/54/14 22/55/14 24/56/14
f 21/57/15 17/58/15 18/59/15 22/60/15
f 20/61/16 19/62/16 23/63/16 24/64/16
f 19/65/17 17/66/17 21/67/17 23/68/17
f 22/69/18 18/70/18 20/71/18 24/72/18
o cuboid
v 0.21398258555056737 -0.4619267823890638 -0.3614615882735919
v 0.2135820503117825 -0.46166264597547585 -0.3618621235123768
v 0.23202576487117044 -0.5019803062675505 -0.4059184089529888
v 0.23162522963238558 -0.5017161698539626 -0.40631894419177367
v 0.16952576487117052 -0.5019803062675505 -0.34341840895298875
v 0.16912522963238566 -0.5017161698539626 -0.3438189441917736
v 0.18756894419177358 -0.5420338301460373 -0.38787522963238563
v 0.18716840895298872 -0.5417696937324494 -0.3882757648711705
vt 0.0625 1
vt 0 1
vt 0 0.9375
vt 0.0625 0.9375
vt 0.0625 0.8125
vt 0.0625 0.875
vt 0 0.875
vt 0 0.8125
vt 0.125 0.9375
vt 0.1875 0.9375
vt 0.1875 1
vt 0.125 1
vt 0.1875 0.8125
vt 0.1875 0.875
vt 0.125 0.875
vt 0.125 0.8125
vt 0.0625 0.6875
vt 0.0625 0.75
vt 0 0.75
vt 0 0.6875
vt 0.3125 1
vt 0.25 1
vt 0.25 0.9375
vt 0.3125 0.9375
vn 0.7113091308703496 0.6408563820557884 -0.2886908691296509
vn -0.7113091308703496 -0.6408563820557884 0.2886908691296509
vn -0.2886908691296491 0.6408563820557884 0.7113091308703503
vn 0.2886908691296491 -0.6408563820557884 -0.7113091308703503
vn 0.6408563820557892 -0.4226182617407 0.6408563820557877
vn -0.6408563820557892 0.4226182617407 -0.6408563820557877
usemtl m_009dc320-1756-3914-9858-1488a35073a0
f 26/73/19 25/74/19 27/75/19 28/76/19
f 31/77/20 29/78/20 30/79/20 32/80/20
f 29/81/21 25/82/21 26/83/21 30/84/21
f 28/85/22 27/86/22 31/87/22 32/88/22
f 27/89/23 25/90/23 29/91/23 31/92/23
f 30/93/24 26/94/24 28/95/24 32/96/24
o cuboid
v -0.22351741444943263 -0.4619267823890638 -0.2989615882735919
v -0.2239179496882175 -0.46166264597547585 -0.2993621235123768
v -0.20547423512882956 -0.5019803062675505 -0.3434184089529888
v -0.20587477036761442 -0.5017161698539626 -0.34381894419177367
v -0.26797423512882945 -0.5019803062675505 -0.28091840895298875
v -0.26837477036761437 -0.5017161698539626 -0.2813189441917736
v -0.24993105580822642 -0.5420338301460373 -0.32537522963238563
v -0.2503315910470113 -0.5417696937324494 -0.3257757648711705
vt 0.0625 1
vt 0 1
vt 0 0.9375
vt 0.0625 0.9375
vt 0.0625 0.8125
vt 0.0625 0.875
vt 0 0.875
vt 0 0.8125
vt 0.125 0.9375
vt 0.1875 0.9375
vt 0.1875 1
vt 0.125 1
vt 0.1875 0.8125
vt 0.1875 0.875
vt 0.125 0.875
vt 0.125 0.8125
vt 0.0625 0.6875
vt 0.0625 0.75
vt 0 0.75
vt 0 0.6875
vt 0.3125 1
vt 0.25 1
vt 0.25 0.9375
vt 0.3125 0.9375
vn 0.7113091308703496 0.6408563820557884 -0.2886908691296509
vn -0.7113091308703496 -0.6408563820557884 0.2886908691296509
vn -0.2886908691296491 0.6408563820557884 0.7113091308703503
vn 0.2886908691296491 -0.6408563820557884 -0.7113091308703503
vn 0.6408563820557892 -0.4226182617407 0.6408563820557877
vn -0.6408563820557892 0.4226182617407 -0.6408563820557877
usemtl m_009dc320-1756-3914-9858-1488a35073a0
f 34/97/25 33/98/25 35/99/25 36/100/25
f 39/101/26 37/102/26 38/103/26 40/104/26
f 37/105/27 33/106/27 34/107/27 38/108/27
f 36/109/28 35/110/28 39/111/28 40/112/28
f 35/113/29 33/114/29 37/115/29 39/116/29
f 38/117/30 34/118/30 36/119/30 40/120/30
o cuboid
v 0.4014825855505674 -0.4619267823890638 0.07603841172640809
v 0.4010820503117825 -0.46166264597547585 0.07563787648762323
v 0.41952576487117044 -0.5019803062675505 0.03158159104701121
v 0.4191252296323856 -0.5017161698539626 0.03118105580822634
v 0.35702576487117055 -0.5019803062675505 0.09408159104701128
v 0.35662522963238563 -0.5017161698539626 0.0936810558082264
v 0.3750689441917736 -0.5420338301460373 0.04962477036761438
v 0.3746684089529887 -0.5417696937324494 0.04922423512882952
vt 0.0625 1
vt 0 1
vt 0 0.9375
vt 0.0625 0.9375
vt 0.0625 0.8125
vt 0.0625 0.875
vt 0 0.875
vt 0 0.8125
vt 0.125 0.9375
vt 0.1875 0.9375
vt 0.1875 1
vt 0.125 1
vt 0.1875 0.8125
vt 0.1875 0.875
vt 0.125 0.875
vt 0.125 0.8125
vt 0.0625 0.6875
vt 0.0625 0.75
vt 0 0.75
vt 0 0.6875
vt 0.3125 1
vt 0.25 1
vt 0.25 0.9375
vt 0.3125 0.9375
vn 0.7113091308703496 0.6408563820557884 -0.2886908691296509
vn -0.7113091308703496 -0.6408563820557884 0.2886908691296509
vn -0.2886908691296491 0.6408563820557884 0.7113091308703503
vn 0.2886908691296491 -0.6408563820557884 -0.7113091308703503
vn 0.6408563820557892 -0.4226182617407 0.6408563820557877
vn -0.6408563820557892 0.4226182617407 -0.6408563820557877
usemtl m_009dc320-1756-3914-9858-1488a35073a0
f 42/121/31 41/122/31 43/123/31 44/124/31
f 47/125/32 45/126/32 46/127/32 48/128/32
f 45/129/33 41/130/33 42/131/33 46/132/33
f 44/133/34 43/134/34 47/135/34 48/136/34
f 43/137/35 41/138/35 45/139/35 47/140/35
f 46/141/36 42/142/36 44/143/36 48/144/36
o cuboid
v -0.3485174144494326 -0.4619267823890638 0.07603841172640809
v -0.3489179496882175 -0.46166264597547585 0.07563787648762323
v -0.33047423512882956 -0.5019803062675505 0.03158159104701121
v -0.3308747703676144 -0.5017161698539626 0.03118105580822634
v -0.39297423512882945 -0.5019803062675505 0.09408159104701128
v -0.39337477036761437 -0.5017161698539626 0.0936810558082264
v -0.3749310558082264 -0.5420338301460373 0.04962477036761438
v -0.3753315910470113 -0.5417696937324494 0.04922423512882952
vt 0.0625 1
vt 0 1
vt 0 0.9375
vt 0.0625 0.9375
vt 0.0625 0.8125
vt 0.0625 0.875
vt 0 0.875
vt 0 0.8125
vt 0.125 0.9375
vt 0.1875 0.9375
vt 0.1875 1
vt 0.125 1
vt 0.1875 0.8125
vt 0.1875 0.875
vt 0.125 0.875
vt 0.125 0.8125
vt 0.0625 0.6875
vt 0.0625 0.75
vt 0 0.75
vt 0 0.6875
vt 0.3125 1
vt 0.25 1
vt 0.25 0.9375
vt 0.3125 0.9375
vn 0.7113091308703496 0.6408563820557884 -0.2886908691296509
vn -0.7113091308703496 -0.6408563820557884 0.2886908691296509
vn -0.2886908691296491 0.6408563820557884 0.7113091308703503
vn 0.2886908691296491 -0.6408563820557884 -0.7113091308703503
vn 0.6408563820557892 -0.4226182617407 0.6408563820557877
vn -0.6408563820557892 0.4226182617407 -0.6408563820557877
usemtl m_009dc320-1756-3914-9858-1488a35073a0
f 50/145/37 49/146/37 51/147/37 52/148/37
f 55/149/38 53/150/38 54/151/38 56/152/38
f 53/153/39 49/154/39 50/155/39 54/156/39
f 52/157/40 51/158/40 55/159/40 56/160/40
f 51/161/41 49/162/41 53/163/41 55/164/41
f 54/165/42 50/166/42 52/167/42 56/168/42
o cuboid
v 0.3389825855505674 -0.4619267823890638 0.01353841172640809
v 0.3385820503117825 -0.46166264597547585 0.013137876487623223
v 0.35702576487117044 -0.5019803062675505 -0.030918408952988797
v 0.3566252296323856 -0.5017161698539626 -0.03131894419177366
v 0.29452576487117055 -0.5019803062675505 0.03158159104701127
v 0.29412522963238563 -0.5017161698539626 0.031181055808226405
v 0.3125689441917736 -0.5420338301460373 -0.012875229632385615
v 0.3121684089529887 -0.5417696937324494 -0.013275764871170482
vt 0.0625 1
vt 0 1
vt 0 0.9375
vt 0.0625 0.9375
vt 0.0625 0.8125
vt 0.0625 0.875
vt 0 0.875
vt 0 0.8125
vt 0.125 0.9375
vt 0.1875 0.9375
vt 0.1875 1
vt 0.125 1
vt 0.1875 0.8125
vt 0.1875 0.875
vt 0.125 0.875
vt 0.125 0.8125
vt 0.0625 0.6875
vt 0.0625 0.75
vt 0 0.75
vt 0 0.6875
vt 0.3125 1
vt 0.25 1
vt 0.25 0.9375
vt 0.3125 0.9375
vn 0.7113091308703496 0.6408563820557884 -0.2886908691296509
vn -0.7113091308703496 -0.6408563820557884 0.2886908691296509
vn -0.2886908691296491 0.6408563820557884 0.7113091308703503
vn 0.2886908691296491 -0.6408563820557884 -0.7113091308703503
vn 0.6408563820557892 -0.4226182617407 0.6408563820557877
vn -0.6408563820557892 0.4226182617407 -0.6408563820557877
usemtl m_009dc320-1756-3914-9858-1488a35073a0
f 58/169/43 57/170/43 59/171/43 60/172/43
f 63/173/44 61/174/44 62/175/44 64/176/44
f 61/177/45 57/178/45 58/179/45 62/180/45
f 60/181/46 59/182/46 63/183/46 64/184/46
f 59/185/47 57/186/47 61/187/47 63/188/47
f 62/189/48 58/190/48 60/191/48 64/192/48