# Blender 5.0.1
# www.blender.org
mtllib grimorie.mtl
o cuboid
v -0.328125 -0.312500 -0.468750
v -0.328125 -0.312500 0.468750
v -0.328125 -0.437500 -0.468750
v -0.328125 -0.437500 0.468750
v 0.312500 -0.312500 -0.468750
v 0.312500 -0.312500 0.468750
v 0.312500 -0.437500 -0.468750
v 0.312500 -0.437500 0.468750
vn -1.0000 -0.0000 -0.0000
vn 1.0000 -0.0000 -0.0000
vn -0.0000 1.0000 -0.0000
vn -0.0000 -1.0000 -0.0000
vn -0.0000 -0.0000 -1.0000
vn -0.0000 -0.0000 1.0000
vt 0.781250 1.000000
vt 0.546875 1.000000
vt 0.546875 0.968750
vt 0.781250 0.968750
vt 0.781250 0.921875
vt 0.781250 0.953125
vt 0.546875 0.953125
vt 0.546875 0.921875
vt 0.375000 0.765625
vt 0.531250 0.765625
vt 0.531250 1.000000
vt 0.375000 1.000000
vt 0.531250 0.515625
vt 0.531250 0.750000
vt 0.375000 0.750000
vt 0.375000 0.515625
vt 0.703125 0.875000
vt 0.703125 0.906250
vt 0.546875 0.906250
vt 0.546875 0.875000
vt 0.703125 0.859375
vt 0.546875 0.859375
vt 0.546875 0.828125
vt 0.703125 0.828125
s 1
usemtl m_623c1901-380b-d19b-0e35-f4a009b3101a
f 2/1/1 1/2/1 3/3/1 4/4/1
f 7/5/2 5/6/2 6/7/2 8/8/2
f 5/9/3 1/10/3 2/11/3 6/12/3
f 4/13/4 3/14/4 7/15/4 8/16/4
f 3/17/5 1/18/5 5/19/5 7/20/5
f 6/21/6 2/22/6 4/23/6 8/24/6
o cuboid.001
v -0.375000 -0.437500 -0.500000
v -0.375000 -0.437500 0.500000
v -0.375000 -0.500000 -0.500000
v -0.375000 -0.500000 0.500000
v 0.312500 -0.437500 -0.500000
v 0.312500 -0.437500 0.500000
v 0.312500 -0.500000 -0.500000
v 0.312500 -0.500000 0.500000
vn -1.0000 -0.0000 -0.0000
vn 1.0000 -0.0000 -0.0000
vn -0.0000 1.0000 -0.0000
vn -0.0000 -1.0000 -0.0000
vn -0.0000 -0.0000 -1.0000
vn -0.0000 -0.0000 1.0000
vt 0.796875 0.812500
vt 0.546875 0.812500
vt 0.546875 0.796875
vt 0.796875 0.796875
vt 0.796875 0.765625
vt 0.796875 0.781250
vt 0.546875 0.781250
vt 0.546875 0.765625
vt 0.000000 0.750000
vt 0.171875 0.750000
vt 0.171875 1.000000
vt 0.000000 1.000000
vt 0.359375 0.750000
vt 0.359375 1.000000
vt 0.187500 1.000000
vt 0.187500 0.750000
vt 0.718750 0.671875
vt 0.718750 0.687500
vt 0.546875 0.687500
vt 0.546875 0.671875
vt 0.718750 0.656250
vt 0.546875 0.656250
vt 0.546875 0.640625
vt 0.718750 0.640625
s 1
usemtl m_623c1901-380b-d19b-0e35-f4a009b3101a
f 10/25/7 9/26/7 11/27/7 12/28/7
f 15/29/8 13/30/8 14/31/8 16/32/8
f 13/33/9 9/34/9 10/35/9 14/36/9
f 12/37/10 11/38/10 15/39/10 16/40/10
f 11/41/11 9/42/11 13/43/11 15/44/11
f 14/45/12 10/46/12 12/47/12 16/48/12
o cuboid.002
v 0.312500 -0.250000 -0.500000
v 0.312500 -0.250000 0.500000
v 0.312500 -0.500000 -0.500000
v 0.312500 -0.500000 0.500000
v 0.375000 -0.250000 -0.500000
v 0.375000 -0.250000 0.500000
v 0.375000 -0.500000 -0.500000
v 0.375000 -0.500000 0.500000
vn -1.0000 -0.0000 -0.0000
vn 1.0000 -0.0000 -0.0000
vn -0.0000 1.0000 -0.0000
vn -0.0000 -1.0000 -0.0000
vn -0.0000 -0.0000 -1.0000
vn -0.0000 -0.0000 1.0000
vt 0.625000 0.500000
vt 0.375000 0.500000
vt 0.375000 0.437500
vt 0.625000 0.437500
vt 0.250000 0.406250
vt 0.250000 0.468750
vt 0.000000 0.468750
vt 0.000000 0.406250
vt 0.265625 0.218750
vt 0.281250 0.218750
vt 0.281250 0.468750
vt 0.265625 0.468750
vt 0.312500 0.218750
vt 0.312500 0.468750
vt 0.296875 0.468750
vt 0.296875 0.218750
vt 0.343750 0.406250
vt 0.343750 0.468750
vt 0.328125 0.468750
vt 0.328125 0.406250
vt 0.375000 0.421875
vt 0.359375 0.421875
vt 0.359375 0.359375
vt 0.375000 0.359375
s 1
usemtl m_623c1901-380b-d19b-0e35-f4a009b3101a
f 18/49/13 17/50/13 19/51/13 20/52/13
f 23/53/14 21/54/14 22/55/14 24/56/14
f 21/57/15 17/58/15 18/59/15 22/60/15
f 20/61/16 19/62/16 23/63/16 24/64/16
f 19/65/17 17/66/17 21/67/17 23/68/17
f 22/69/18 18/70/18 20/71/18 24/72/18
o cuboid.003
v -0.375000 -0.250000 -0.500000
v -0.375000 -0.250000 0.500000
v -0.375000 -0.312500 -0.500000
v -0.375000 -0.312500 0.500000
v 0.312500 -0.250000 -0.500000
v 0.312500 -0.250000 0.500000
v 0.312500 -0.312500 -0.500000
v 0.312500 -0.312500 0.500000
vn -1.0000 -0.0000 -0.0000
vn 1.0000 -0.0000 -0.0000
vn -0.0000 1.0000 -0.0000
vn -0.0000 -1.0000 -0.0000
vn -0.0000 -0.0000 -1.0000
vn -0.0000 -0.0000 1.0000
vt 0.796875 0.750000
vt 0.546875 0.750000
vt 0.546875 0.734375
vt 0.796875 0.734375
vt 0.796875 0.703125
vt 0.796875 0.718750
vt 0.546875 0.718750
vt 0.546875 0.703125
vt 0.000000 0.484375
vt 0.171875 0.484375
vt 0.171875 0.734375
vt 0.000000 0.734375
vt 0.359375 0.484375
vt 0.359375 0.734375
vt 0.187500 0.734375
vt 0.187500 0.484375
vt 0.718750 0.609375
vt 0.718750 0.625000
vt 0.546875 0.625000
vt 0.546875 0.609375
vt 0.718750 0.593750
vt 0.546875 0.593750
vt 0.546875 0.578125
vt 0.718750 0.578125
s 1
usemtl m_623c1901-380b-d19b-0e35-f4a009b3101a
f 26/73/19 25/74/19 27/75/19 28/76/19
f 31/77/20 29/78/20 30/79/20 32/80/20
f 29/81/21 25/82/21 26/83/21 30/84/21
f 28/85/22 27/86/22 31/87/22 32/88/22
f 27/89/23 25/90/23 29/91/23 31/92/23
f 30/93/24 26/94/24 28/95/24 32/96/24
