# Made in Blockbench 5.0.4
mtllib leggings.mtl

o cuboid
v 0.265625 -0.1875 0.203125
v 0.265625 -0.1875 -0.203125
v 0.265625 -0.5 0.203125
v 0.265625 -0.5 -0.203125
v -0.265625 -0.1875 0.203125
v -0.265625 -0.1875 -0.203125
v -0.265625 -0.5 0.203125
v -0.265625 -0.5 -0.203125
vt 0.5 0.625
vt 0.28125 0.625
vt 0.28125 0.46875
vt 0.5 0.46875
vt 0.21875 0.34375
vt 0.21875 0.5
vt 0 0.5
vt 0 0.34375
vt 0 0.78125
vt 0.25 0.78125
vt 0.25 1
vt 0 1
vt 0.25 0.53125
vt 0.25 0.75
vt 0 0.75
vt 0 0.53125
vt 0.53125 0.84375
vt 0.53125 1
vt 0.28125 1
vt 0.28125 0.84375
vt 0.53125 0.8125
vt 0.28125 0.8125
vt 0.28125 0.65625
vt 0.53125 0.65625
vn 1 0 0
vn -1 0 0
vn 0 1 0
vn 0 -1 0
vn 0 0 1
vn 0 0 -1
usemtl m_94e86fb6-87ab-4775-e7b3-0690199b4c9b
f 2/1/1 1/2/1 3/3/1 4/4/1
f 7/5/2 5/6/2 6/7/2 8/8/2
f 5/9/3 1/10/3 2/11/3 6/12/3
f 4/13/4 3/14/4 7/15/4 8/16/4
f 3/17/5 1/18/5 5/19/5 7/20/5
f 6/21/6 2/22/6 4/23/6 8/24/6