# Made in Blockbench 5.0.4
mtllib metalnugget.mtl

o cuboid
v 0.08305787804858433 -0.39363176496038177 0.053811865314030004
v 0.030230595330996906 -0.3457539872654457 -0.0488623602913787
v 0.08305787804858433 -0.506920238339963 0.0009845825964425736
v 0.030230595330996906 -0.4590424606450269 -0.10168964300896613
v -0.030230595330996906 -0.4159575393549731 0.10168964300896613
v -0.08305787804858433 -0.368079761660037 -0.0009845825964425736
v -0.030230595330996906 -0.5292460127345543 0.0488623602913787
v -0.08305787804858433 -0.48136823503961823 -0.053811865314030004
vt 0.125 1
vt 0 1
vt 0 0.875
vt 0.125 0.875
vt 0.125 0.6875
vt 0.125 0.8125
vt 0 0.8125
vt 0 0.6875
vt 0.1875 0.875
vt 0.3125 0.875
vt 0.3125 1
vt 0.1875 1
vt 0.3125 0.6875
vt 0.3125 0.8125
vt 0.1875 0.8125
vt 0.1875 0.6875
vt 0.125 0.5
vt 0.125 0.625
vt 0 0.625
vt 0 0.5
vt 0.5 1
vt 0.375 1
vt 0.375 0.875
vt 0.5 0.875
vn 0.9063077870366499 0.17860619515673035 -0.383022221559489
vn -0.9063077870366499 -0.17860619515673035 0.383022221559489
vn 0 0.9063077870366499 0.42261826174069944
vn 0 -0.9063077870366499 -0.42261826174069944
vn 0.42261826174069944 -0.383022221559489 0.8213938048432696
vn -0.42261826174069944 0.383022221559489 -0.8213938048432696
usemtl m_883a2c9c-b66f-cf9b-4c57-af11be23fc3a
f 2/1/1 1/2/1 3/3/1 4/4/1
f 7/5/2 5/6/2 6/7/2 8/8/2
f 5/9/3 1/10/3 2/11/3 6/12/3
f 4/13/4 3/14/4 7/15/4 8/16/4
f 3/17/5 1/18/5 5/19/5 7/20/5
f 6/21/6 2/22/6 4/23/6 8/24/6