# Made in Blockbench 5.0.4
mtllib metalingot.mtl

o cuboid
v 0.1875 -0.375 0.0625
v 0.1875 -0.375 -0.0625
v 0.1875 -0.5 0.0625
v 0.1875 -0.5 -0.0625
v -0.1875 -0.375 0.0625
v -0.1875 -0.375 -0.0625
v -0.1875 -0.5 0.0625
v -0.1875 -0.5 -0.0625
vt 0.5625 0.8125
vt 0.4375 0.8125
vt 0.4375 0.6875
vt 0.5625 0.6875
vt 0.5625 0.5
vt 0.5625 0.625
vt 0.4375 0.625
vt 0.4375 0.5
vt 0 0.875
vt 0.375 0.875
vt 0.375 1
vt 0 1
vt 0.375 0.6875
vt 0.375 0.8125
vt 0 0.8125
vt 0 0.6875
vt 0.375 0.5
vt 0.375 0.625
vt 0 0.625
vt 0 0.5
vt 0.8125 1
vt 0.4375 1
vt 0.4375 0.875
vt 0.8125 0.875
vn 1 0 0
vn -1 0 0
vn 0 1 0
vn 0 -1 0
vn 0 0 1
vn 0 0 -1
usemtl m_f90b6901-e5d3-f783-598a-636368b73c7c
f 2/1/1 1/2/1 3/3/1 4/4/1
f 7/5/2 5/6/2 6/7/2 8/8/2
f 5/9/3 1/10/3 2/11/3 6/12/3
f 4/13/4 3/14/4 7/15/4 8/16/4
f 3/17/5 1/18/5 5/19/5 7/20/5
f 6/21/6 2/22/6 4/23/6 8/24/6