# Made in Blockbench 5.0.4
mtllib oakbranch.mtl

o cuboid
v 0.1875 0.1875000000000001 -0.4999999999999999
v 0.1875 -0.1874999999999999 -0.5
v 0.1875 0.1874999999999999 0.5000000000000001
v 0.1875 -0.1875000000000001 0.5
v -0.1875 0.1875000000000001 -0.4999999999999999
v -0.1875 -0.1874999999999999 -0.5
v -0.1875 0.1874999999999999 0.5000000000000001
v -0.1875 -0.1875000000000001 0.5
vt 0.375 1
vt 0 1
vt 0 0
vt 0.375 0
vt 0.625 0
vt 0.625 1
vt 0.25 1
vt 0.25 0
vt 0.25 0.625
vt 0.625 0.625
vt 0.625 1
vt 0.25 1
vt 0.875 0
vt 0.875 0.375
vt 0.5 0.375
vt 0.5 0
vt 0.875 0
vt 0.875 1
vt 0.5 1
vt 0.5 0
vt 1 1
vt 0.625 1
vt 0.625 0
vt 1 0
vn 1 0 0
vn -1 0 0
vn 0 2.220446049250313e-16 -1
vn 0 -2.220446049250313e-16 1
vn 0 1 2.220446049250313e-16
vn 0 -1 -2.220446049250313e-16
usemtl m_46fa6f42-5baa-8e79-235c-12c0c1e4b7fb
f 2/1/1 1/2/1 3/3/1 4/4/1
f 7/5/2 5/6/2 6/7/2 8/8/2
f 5/9/3 1/10/3 2/11/3 6/12/3
f 4/13/4 3/14/4 7/15/4 8/16/4
f 3/17/5 1/18/5 5/19/5 7/20/5
f 6/21/6 2/22/6 4/23/6 8/24/6