# Made in Blockbench 5.0.4
mtllib oakleaves.mtl

o cuboid
v 0.5 0.5 0.5
v 0.5 0.5 -0.5
v 0.5 -0.5 0.5
v 0.5 -0.5 -0.5
v -0.5 0.5 0.5
v -0.5 0.5 -0.5
v -0.5 -0.5 0.5
v -0.5 -0.5 -0.5
vt 0.25 0.703125
vt 0 0.703125
vt 0 0.453125
vt 0.25 0.453125
vt 0.25 0.453125
vt 0.25 0.703125
vt 0 0.703125
vt 0 0.453125
vt 0 0.453125
vt 0.25 0.453125
vt 0.25 0.703125
vt 0 0.703125
vt 0.25 0.453125
vt 0.25 0.703125
vt 0 0.703125
vt 0 0.453125
vt 0.25 0.453125
vt 0.25 0.703125
vt 0 0.703125
vt 0 0.453125
vt 0.25 0.703125
vt 0 0.703125
vt 0 0.453125
vt 0.25 0.453125
vn 1 0 0
vn -1 0 0
vn 0 1 0
vn 0 -1 0
vn 0 0 1
vn 0 0 -1
usemtl m_0cd19c93-392e-536d-2337-d7b09519af9d
f 2/1/1 1/2/1 3/3/1 4/4/1
f 7/5/2 5/6/2 6/7/2 8/8/2
f 5/9/3 1/10/3 2/11/3 6/12/3
f 4/13/4 3/14/4 7/15/4 8/16/4
f 3/17/5 1/18/5 5/19/5 7/20/5
f 6/21/6 2/22/6 4/23/6 8/24/6
o plane
v -0.29499236344721935 0.14238591206575224 -0.9154333714438354
v -0.5054305017051341 -0.8298859120657524 0.033791728290963274
v 0.5054305017051341 0.8298859120657524 -0.033791728290963274
v 0.29499236344721935 -0.14238591206575224 0.9154333714438354
vt 0.28125 0.71875
vt 0.28125 1
vt 0 1
vt 0 0.71875
vn -0.798565334048907 0.4999999999999978 0.3351020848269371
usemtl m_0cd19c93-392e-536d-2337-d7b09519af9d
f 9/25/7 10/26/7 12/27/7 11/28/7
o plane
v 0.1610386676907235 -0.14238591206574774 -0.9482116322602256
v -0.46392561410833355 0.8298859120657494 -0.20340820418312627
v 0.46392561410833355 -0.8298859120657494 0.20340820418312627
v -0.1610386676907235 0.14238591206574774 0.9482116322602256
vt 0.28125 0.71875
vt 0.28125 1
vt 0 1
vt 0 0.71875
vn 0.8630690252629698 0.5000000000000043 0.07149725611254697
usemtl m_0cd19c93-392e-536d-2337-d7b09519af9d
f 13/29/8 14/30/8 16/31/8 15/32/8
o plane
v 0.22345075571481737 -0.8298859120657441 -0.45461151846965414
v -0.9402847368660061 -0.14238591206575446 -0.2022458050542179
v 0.9402847368660061 0.14238591206575446 0.2022458050542179
v -0.22345075571481737 0.8298859120657441 0.45461151846965414
vt 0.28125 0.71875
vt 0.28125 1
vt 0 1
vt 0 0.71875
vn 0.10907574870319717 0.5000000000000115 -0.8591289082814205
usemtl m_0cd19c93-392e-536d-2337-d7b09519af9d
f 17/33/9 18/34/9 20/35/9 19/36/9
o plane
v 0.010388030220614797 0.8298859120657516 -0.5064523292304334
v -0.9376601496297283 0.14238591206575335 0.2140845530194996
v 0.9376601496297283 -0.14238591206575335 -0.2140845530194996
v -0.010388030220614797 -0.8298859120657516 0.5064523292304334
vt 0.28125 0.71875
vt 0.28125 1
vt 0 1
vt 0 0.71875
vn 0.2642273654025274 0.4999999999999992 0.8247326229587625
usemtl m_0cd19c93-392e-536d-2337-d7b09519af9d
f 21/37/10 22/38/10 24/39/10 23/40/10