# Made in Blockbench 5.0.4
mtllib obsidianknife.mtl

o cuboid
v 0.046875 0.015625000000000014 0.015624999999999972
v -0.046875 0.015625000000000014 0.015624999999999972
v 0.046875 0.015625 -0.015625000000000024
v -0.046875 0.015625 -0.015625000000000024
v 0.046875 -0.203125 0.015625000000000028
v -0.046875 -0.203125 0.015625000000000028
v 0.046875 -0.203125 -0.015624999999999976
v -0.046875 -0.203125 -0.015624999999999976
vt 0.0625 0.90625
vt 0.0625 1
vt 0 1
vt 0 0.90625
vt 0.4375 0.5
vt 0.5 0.5
vt 0.5 0.59375
vt 0.4375 0.59375
vt 0.125 0.65625
vt 0.375 0.65625
vt 0.375 0.75
vt 0.125 0.75
vt 0.375 0.84375
vt 0.375 0.9375
vt 0.125 0.9375
vt 0.125 0.84375
vt 0.375 0.5
vt 0.375 0.5625
vt 0.125 0.5625
vt 0.125 0.5
vt 0.375 1
vt 0.125 1
vt 0.125 0.9375
vt 0.375 0.9375
vn 0 1 -2.220446049250313e-16
vn 0 -1 2.220446049250313e-16
vn 0 2.220446049250313e-16 1
vn 0 -2.220446049250313e-16 -1
vn 1 0 0
vn -1 0 0
usemtl m_de13668b-74ff-9821-d38e-2cb20d3195fe
f 2/1/1 1/2/1 3/3/1 4/4/1
f 7/5/2 5/6/2 6/7/2 8/8/2
f 5/9/3 1/10/3 2/11/3 6/12/3
f 4/13/4 3/14/4 7/15/4 8/16/4
f 3/17/5 1/18/5 5/19/5 7/20/5
f 6/21/6 2/22/6 4/23/6 8/24/6
o cuboid
v -0.046875 0.015625000000000014 0.007812499999999972
v -0.078125 0.015625000000000014 0.007812499999999972
v -0.046875 0.015625 -0.007812500000000024
v -0.078125 0.015625 -0.007812500000000024
v -0.046875 -0.203125 0.007812500000000028
v -0.078125 -0.203125 0.007812500000000028
v -0.046875 -0.203125 -0.007812499999999976
v -0.078125 -0.203125 -0.007812499999999976
vt 0.0625 0.8125
vt 0.0625 0.90625
vt 0 0.90625
vt 0 0.8125
vt 0.4375 0.59375
vt 0.5 0.59375
vt 0.5 0.6875
vt 0.4375 0.6875
vt 0.125 0.5625
vt 0.375 0.5625
vt 0.375 0.65625
vt 0.125 0.65625
vt 0.375 0.75
vt 0.375 0.84375
vt 0.125 0.84375
vt 0.125 0.75
vt 0.375 0.5
vt 0.375 0.5625
vt 0.125 0.5625
vt 0.125 0.5
vt 0.375 1
vt 0.125 1
vt 0.125 0.9375
vt 0.375 0.9375
vn 0 1 -2.220446049250313e-16
vn 0 -1 2.220446049250313e-16
vn 0 2.220446049250313e-16 1
vn 0 -2.220446049250313e-16 -1
vn 1 0 0
vn -1 0 0
usemtl m_de13668b-74ff-9821-d38e-2cb20d3195fe
f 10/25/7 9/26/7 11/27/7 12/28/7
f 15/29/8 13/30/8 14/31/8 16/32/8
f 13/33/9 9/34/9 10/35/9 14/36/9
f 12/37/10 11/38/10 15/39/10 16/40/10
f 11/41/11 9/42/11 13/43/11 15/44/11
f 14/45/12 10/46/12 12/47/12 16/48/12
o cuboid
v 0.0546875 -0.1875 0.023437499999999965
v -0.0546875 -0.1875 0.023437499999999965
v 0.0546875 -0.1875 -0.023437500000000035
v -0.0546875 -0.1875 -0.023437500000000035
v 0.0546875 -0.5 0.023437500000000035
v -0.0546875 -0.5 0.023437500000000035
v 0.0546875 -0.5 -0.023437499999999965
v -0.0546875 -0.5 -0.023437499999999965
vt 0.5625 0.90625
vt 0.5625 1
vt 0.5 1
vt 0.5 0.90625
vt 0.9375 0.5
vt 1 0.5
vt 1 0.59375
vt 0.9375 0.59375
vt 0.625 0.65625
vt 0.875 0.65625
vt 0.875 0.75
vt 0.625 0.75
vt 0.875 0.84375
vt 0.875 0.9375
vt 0.625 0.9375
vt 0.625 0.84375
vt 0.875 0.5
vt 0.875 0.5625
vt 0.625 0.5625
vt 0.625 0.5
vt 0.875 1
vt 0.625 1
vt 0.625 0.9375
vt 0.875 0.9375
vn 0 1 -2.220446049250313e-16
vn 0 -1 2.220446049250313e-16
vn 0 2.220446049250313e-16 1
vn 0 -2.220446049250313e-16 -1
vn 1 0 0
vn -1 0 0
usemtl m_de13668b-74ff-9821-d38e-2cb20d3195fe
f 18/49/13 17/50/13 19/51/13 20/52/13
f 23/53/14 21/54/14 22/55/14 24/56/14
f 21/57/15 17/58/15 18/59/15 22/60/15
f 20/61/16 19/62/16 23/63/16 24/64/16
f 19/65/17 17/66/17 21/67/17 23/68/17
f 22/69/18 18/70/18 20/71/18 24/72/18
o cuboid
v -0.04687499999999999 0.015624999999999927 -0.007812499999999979
v -0.04687499999999999 0.04687499999999993 -0.007812500000000035
v -0.046875 0.015624999999999955 0.00781250000000002
v -0.046875 0.04687499999999996 0.007812499999999965
v 0.04687500000000001 0.015624999999999934 -0.007812499999999965
v 0.04687500000000001 0.04687499999999993 -0.00781250000000002
v 0.046875 0.015624999999999962 0.007812500000000035
v 0.046875 0.04687499999999996 0.007812499999999979
vt 0.0625 0.8125
vt 0.0625 0.90625
vt 0 0.90625
vt 0 0.8125
vt 0.4375 0.59375
vt 0.5 0.59375
vt 0.5 0.6875
vt 0.4375 0.6875
vt 0.125 0.5625
vt 0.375 0.5625
vt 0.375 0.65625
vt 0.125 0.65625
vt 0.375 0.75
vt 0.375 0.84375
vt 0.125 0.84375
vt 0.125 0.75
vt 0.375 0.5
vt 0.375 0.5625
vt 0.125 0.5625
vt 0.125 0.5
vt 0.375 1
vt 0.125 1
vt 0.125 0.9375
vt 0.375 0.9375
vn -1 -3.8163916471489966e-17 -1.2246467991473525e-16
vn 1 3.8163916471489966e-17 1.2246467991473525e-16
vn 1.2246467991473532e-16 -1.7763568394002505e-15 -1
vn -1.2246467991473532e-16 1.7763568394002505e-15 1
vn 3.8163916471489744e-17 -1 1.7763568394002505e-15
vn -3.8163916471489744e-17 1 -1.7763568394002505e-15
usemtl m_de13668b-74ff-9821-d38e-2cb20d3195fe
f 26/73/19 25/74/19 27/75/19 28/76/19
f 31/77/20 29/78/20 30/79/20 32/80/20
f 29/81/21 25/82/21 26/83/21 30/84/21
f 28/85/22 27/86/22 31/87/22 32/88/22
f 27/89/23 25/90/23 29/91/23 31/92/23
f 30/93/24 26/94/24 28/95/24 32/96/24
o cuboid
v -0.015624999999999997 0.04687499999999992 -0.007812499999999972
v -0.015624999999999997 0.07812499999999992 -0.007812500000000042
v -0.015624999999999997 0.04687499999999995 0.007812500000000028
v -0.015624999999999997 0.07812499999999994 0.007812499999999965
v 0.04687500000000001 0.046874999999999924 -0.007812499999999958
v 0.04687500000000001 0.07812499999999992 -0.007812500000000028
v 0.046875 0.04687499999999996 0.007812500000000035
v 0.046875 0.07812499999999996 0.007812499999999972
vt 0.0625 0.8125
vt 0.0625 0.90625
vt 0 0.90625
vt 0 0.8125
vt 0.4375 0.59375
vt 0.5 0.59375
vt 0.5 0.6875
vt 0.4375 0.6875
vt 0.125 0.5625
vt 0.375 0.5625
vt 0.375 0.65625
vt 0.125 0.65625
vt 0.375 0.75
vt 0.375 0.84375
vt 0.125 0.84375
vt 0.125 0.75
vt 0.375 0.5
vt 0.375 0.5625
vt 0.125 0.5625
vt 0.125 0.5
vt 0.375 1
vt 0.125 1
vt 0.125 0.9375
vt 0.375 0.9375
vn -1 -3.4694469519536376e-17 -1.2246467991473525e-16
vn 1 3.4694469519536376e-17 1.2246467991473525e-16
vn 1.2246467991473532e-16 -2.1094237467877974e-15 -1
vn -1.2246467991473532e-16 2.1094237467877974e-15 1
vn 3.4694469519536123e-17 -1 1.9984014443252818e-15
vn -3.4694469519536123e-17 1 -1.9984014443252818e-15
usemtl m_de13668b-74ff-9821-d38e-2cb20d3195fe
f 34/97/25 33/98/25 35/99/25 36/100/25
f 39/101/26 37/102/26 38/103/26 40/104/26
f 37/105/27 33/106/27 34/107/27 38/108/27
f 36/109/28 35/110/28 39/111/28 40/112/28
f 35/113/29 33/114/29 37/115/29 39/116/29
f 38/117/30 34/118/30 36/119/30 40/120/30