# Made in Blockbench 5.0.4
mtllib pineleaves.mtl

o plane
v 1.0947877904616639 0.23746449360408756 -0.12275927412388221
v -0.09337417179464524 -0.14522444812030166 -1.1136474554183735
v 0.09337417179464524 0.14522444812030166 1.1136474554183735
v -1.0947877904616639 -0.23746449360408756 0.12275927412388221
vt 0.5 0
vt 0.5 1
vt 0 1
vt 0 0
vn -0.22226380771708656 0.969016737412608 -0.10772818755240943
usemtl m_89ab83df-4fb5-d0b2-eb99-47e10ebdb5ff
f 1/1/1 2/2/1 4/3/1 3/4/1
o plane
v 0.9532299243386435 -0.5954763791470692 0.08234151123971245
v 0.037532233297163375 -0.0951092576386468 -1.122303475814431
v -0.037532233297163375 0.0951092576386468 1.122303475814431
v -0.9532299243386435 0.5954763791470692 -0.08234151123971245
vt 0.5 0
vt 0.5 1
vt 0 1
vt 0 0
vn 0.5323828755794979 0.8447930852602599 -0.053787701997353776
usemtl m_89ab83df-4fb5-d0b2-eb99-47e10ebdb5ff
f 5/5/2 6/6/2 8/7/2 7/8/2
o plane
v 0.06945223250204047 1.122663042079397 -0.06945223250203786
v 0.7938426500418606 -0.09822028914147318 -0.7938426500418592
v -0.7938426500418606 0.09822028914147318 0.7938426500418592
v -0.06945223250204047 -1.122663042079397 0.06945223250203786
vt 0.5 0
vt 0.5 1
vt 0 1
vt 0 0
vn -0.7071067811865468 1.52655665885959e-15 -0.7071067811865483
usemtl m_89ab83df-4fb5-d0b2-eb99-47e10ebdb5ff
f 9/9/3 10/10/3 12/11/3 11/12/3
o plane
v 0.03475917965644326 1.125878824464297 0.03475921895705447
v 0.7961165730175854 -0.04915693107683339 0.7961165301285005
v -0.7961165730175854 0.04915693107683339 -0.7961165301285005
v -0.03475917965644326 -1.125878824464297 -0.03475921895705447
vt 0.5 0
vt 0.5 1
vt 0 1
vt 0 0
vn 0.707106762936428 2.580956948161627e-8 -0.707106799436666
usemtl m_89ab83df-4fb5-d0b2-eb99-47e10ebdb5ff
f 13/13/4 14/14/4 16/15/4 15/16/4