# Made in Blockbench 5.0.4
mtllib rawtuna.mtl

o cuboid
v 0.11932426932522994 -0.49250902051765 0.18527688276384818
v 2.3418766925686896e-17 -0.4873041689918672 0.06606618370292265
v 3.729655473350135e-17 -0.4977138720434329 0.30448758182477376
v -0.11932426932522988 -0.4925090205176501 0.1852768827638482
v 0.11932426932522988 -0.39884824974435085 0.18936620032934845
v -3.209238430557093e-17 -0.39364339821856803 0.0701555012684229
v -1.8214596497756474e-17 -0.4040531012701338 0.308576899390274
v -0.11932426932522994 -0.39884824974435096 0.18936620032934848
vt 0.671875 0.859375
vt 0.5625 0.859375
vt 0.5625 0.75
vt 0.671875 0.75
vt 0.671875 0.609375
vt 0.671875 0.71875
vt 0.5625 0.71875
vt 0.5625 0.609375
vt 0 0.21875
vt 0.078125 0.21875
vt 0.078125 0.328125
vt 0 0.328125
vt 0.75 0.890625
vt 0.75 1
vt 0.671875 1
vt 0.671875 0.890625
vt 0.171875 0.21875
vt 0.171875 0.328125
vt 0.109375 0.328125
vt 0.109375 0.21875
vt 0.28125 0.328125
vt 0.21875 0.328125
vt 0.21875 0.21875
vt 0.28125 0.21875
vn 5.551115123125783e-16 -0.9990482215818577 -0.04361938736533598
vn -5.551115123125783e-16 0.9990482215818577 0.04361938736533598
vn 0.7071067811865475 0.03084356459723229 -0.7064337722128923
vn -0.7071067811865475 -0.03084356459723229 0.7064337722128923
vn 0.7071067811865476 -0.0308435645972315 0.7064337722128922
vn -0.7071067811865476 0.0308435645972315 -0.7064337722128922
usemtl m_0614cc4f-fccf-8938-d0e6-ef52955d406c
f 2/1/1 1/2/1 3/3/1 4/4/1
f 7/5/2 5/6/2 6/7/2 8/8/2
f 5/9/3 1/10/3 2/11/3 6/12/3
f 4/13/4 3/14/4 7/15/4 8/16/4
f 3/17/5 1/18/5 5/19/5 7/20/5
f 6/21/6 2/22/6 4/23/6 8/24/6
o plane
v 0.17677669529663687 -0.45658348197233445 0.4370835969420628
v 6.071532165918825e-18 -0.44887259082302655 0.26047515388883974
v 6.071532165918825e-18 -0.46429437312164246 0.6136920399952859
v -0.17677669529663687 -0.45658348197233456 0.4370835969420628
vt 0.671875 0.46875
vt 0.671875 0.578125
vt 0.5625 0.578125
vt 0.5625 0.46875
vn -3.1918911957973255e-16 0.9990482215818579 0.04361938736533575
usemtl m_0614cc4f-fccf-8938-d0e6-ef52955d406c
f 9/25/7 10/26/7 12/27/7 11/28/7
o plane
v 0.22097086912079608 -0.44022621171033344 0.06244051384886614
v 8.673617379884035e-19 -0.4305875977736986 -0.15832003996766267
v 8.673617379884035e-19 -0.4498648256469684 0.2832010676653949
v -0.22097086912079608 -0.44022621171033355 0.062440513848866085
vt 0.5 0.8125
vt 0.5 1
vt 0.3125 1
vt 0.3125 0.8125
vn -3.1918911957973255e-16 0.9990482215818579 0.04361938736533575
usemtl m_0614cc4f-fccf-8938-d0e6-ef52955d406c
f 13/29/8 14/30/8 16/31/8 15/32/8
o plane
v 0.2279475158887083 -0.4302707692824282 -0.16557660545078087
v 0.036436405108963815 -0.4232612688472894 -0.32612056002882844
v 0.0672506134670735 -0.4386243666082956 0.02575222918688901
v -0.12426049731267097 -0.43161486617315686 -0.13479172539115858
vt 0.25 0.5
vt 0.25 0.640625
vt 0.109375 0.640625
vt 0.109375 0.5
vn -2.9837243786801097e-16 0.9990482215818579 0.04361938736533577
usemtl m_0614cc4f-fccf-8938-d0e6-ef52955d406c
f 17/33/9 18/34/9 20/35/9 19/36/9
o plane
v 0.044194175701662126 -0.29449647080837316 -0.08759563972838408
v 1.3589968477813186e-9 -0.36711471736166074 -0.1792387803429224
v -1.3589969197723428e-9 -0.37482561980960655 -0.002630337783008932
v -0.044194175701662196 -0.4474438663628941 -0.09427347839754727
vt 0.75 0.359375
vt 0.75 0.4375
vt 0.671875 0.4375
vt 0.671875 0.359375
vn -0.8660253915206403 0.49952413119775274 0.021809713263863106
usemtl m_0614cc4f-fccf-8938-d0e6-ef52955d406c
f 21/37/10 22/38/10 24/39/10 23/40/10
o plane
v -0.08238879923224081 -0.4427905105834192 -0.1474682138887481
v -0.1107962691643317 -0.47468526571044767 -0.19309704520672338
v -0.13920373083566825 -0.5142909151459507 -0.062117433609408065
v -0.16761120076775915 -0.5461856702729793 -0.10774626492738336
vt 0.78125 0.828125
vt 0.78125 0.859375
vt 0.703125 0.859375
vt 0.703125 0.828125
vn -0.7660444333902215 0.6421758278324405 0.028038049496609374
usemtl m_0614cc4f-fccf-8938-d0e6-ef52955d406c
f 25/41/11 26/42/11 28/43/11 27/44/11
o plane
v -0.16761120283294784 -0.3198372064628056 -0.09786367973925844
v -0.11079626296876598 -0.38362671671686255 -0.18912134237520906
v -0.13920373703123406 -0.35558740874407135 -0.05518828959958842
v -0.08238879716705222 -0.4193769189981283 -0.14644595223553902
vt 0.53125 0.296875
vt 0.53125 0.359375
vt 0.5 0.359375
vt 0.5 0.296875
vn -0.7660444333902209 -0.6421758278324414 -0.028038049496609402
usemtl m_0614cc4f-fccf-8938-d0e6-ef52955d406c
f 29/45/12 30/46/12 32/47/12 31/48/12
o plane
v -0.04419417570166221 -0.4193774985061055 -0.09304806314905106
v -1.3589968503834038e-9 -0.491995745059393 -0.18469120376358938
v 1.3589969171702576e-9 -0.4997066475073388 -0.008082761203675917
v 0.04419417570166228 -0.5723248940606263 -0.09972590181821425
vt 0.75 0.25
vt 0.75 0.328125
vt 0.671875 0.328125
vt 0.671875 0.25
vn -0.8660253915206397 -0.49952413119775374 -0.021809713263863106
usemtl m_0614cc4f-fccf-8938-d0e6-ef52955d406c
f 33/49/13 34/50/13 36/51/13 35/52/13
o cuboid
v 0.04419417382415925 -0.4977906847957039 -0.40301342221210834
v 3.2612801348363975e-17 -0.49586296200837693 -0.4471655329754141
v 3.95516952522712e-17 -0.49971840758303093 -0.3588613114488026
v -0.04419417382415918 -0.497790684795704 -0.40301342221210834
v 0.04419417382415917 -0.34231380531202726 -0.39622515505337796
v -5.0653925498522766e-17 -0.3403860825247003 -0.4403772658166837
v -4.371503159461554e-17 -0.3442415280993543 -0.3520730442900722
v -0.044194173824159265 -0.3423138053120274 -0.39622515505337796
vt 1 0.875
vt 0.890625 0.875
vt 0.890625 0.765625
vt 1 0.765625
vt 1 0.640625
vt 1 0.75
vt 0.890625 0.75
vt 0.890625 0.640625
vt 0.890625 0.515625
vt 1 0.515625
vt 1 0.625
vt 0.890625 0.625
vt 1 0.8934659375
vt 1 1
vt 0.890625 1
vt 0.890625 0.8934659375
vt 1 0.265625
vt 1 0.375
vt 0.890625 0.375
vt 0.890625 0.265625
vt 1 0.5
vt 0.890625 0.5
vt 0.890625 0.390625
vt 1 0.390625
vn 5.551115123125783e-16 -0.9990482215818577 -0.04361938736533598
vn -5.551115123125783e-16 0.9990482215818577 0.04361938736533598
vn 0.7071067811865475 0.03084356459723229 -0.7064337722128923
vn -0.7071067811865475 -0.03084356459723229 0.7064337722128923
vn 0.7071067811865476 -0.0308435645972315 0.7064337722128922
vn -0.7071067811865476 0.0308435645972315 -0.7064337722128922
usemtl m_0614cc4f-fccf-8938-d0e6-ef52955d406c
f 38/53/14 37/54/14 39/55/14 40/56/14
f 43/57/15 41/58/15 42/59/15 44/60/15
f 41/61/16 37/62/16 38/63/16 42/64/16
f 40/65/17 39/66/17 43/67/17 44/68/17
f 39/69/18 37/70/18 41/71/18 43/72/18
f 42/73/19 38/74/19 40/75/19 44/76/19
o cuboid
v 0.1325825214724777 -0.501919583759415 -0.3156103338822474
v 2.3418766925686896e-17 -0.49613641539743414 -0.4480666661721647
v 5.117434254131581e-17 -0.5077027521213962 -0.18315400159233014
v -0.13258252147247762 -0.5019195837594153 -0.3156103338822474
v 0.13258252147247762 -0.34581829913724976 -0.3087948046064137
v -5.984795992119984e-17 -0.34003513077526887 -0.44125113689633094
v -3.209238430557093e-17 -0.3516014674992308 -0.1763384723164964
v -0.1325825214724777 -0.34581829913724993 -0.3087948046064137
vt 0.53125 0.78125
vt 0.421875 0.78125
vt 0.421875 0.671875
vt 0.53125 0.671875
vt 0.53125 0.53125
vt 0.53125 0.640625
vt 0.421875 0.640625
vt 0.421875 0.53125
vt 0.421875 0.390625
vt 0.53125 0.390625
vt 0.53125 0.5
vt 0.421875 0.5
vt 0.53125 0.890625
vt 0.53125 1
vt 0.53125 1
vt 0.53125 0.890625
vt 0.21875 0.359375
vt 0.21875 0.46875
vt 0.109375 0.46875
vt 0.109375 0.359375
vt 0.359375 0.46875
vt 0.25 0.46875
vt 0.25 0.359375
vt 0.359375 0.359375
vn 5.551115123125783e-16 -0.9990482215818577 -0.04361938736533598
vn -5.551115123125783e-16 0.9990482215818577 0.04361938736533598
vn 0.7071067811865475 0.03084356459723229 -0.7064337722128923
vn -0.7071067811865475 -0.03084356459723229 0.7064337722128923
vn 0.7071067811865476 -0.0308435645972315 0.7064337722128922
vn -0.7071067811865476 0.0308435645972315 -0.7064337722128922
usemtl m_0614cc4f-fccf-8938-d0e6-ef52955d406c
f 46/77/20 45/78/20 47/79/20 48/80/20
f 51/81/21 49/82/21 50/83/21 52/84/21
f 49/85/22 45/86/22 46/87/22 50/88/22
f 48/89/23 47/90/23 51/91/23 52/92/23
f 47/93/24 45/94/24 49/95/24 51/96/24
f 50/97/25 46/98/25 48/99/25 52/100/25
o cuboid
v 0.12500000000000006 -0.5081191489798665 0.18459532983626484
v 0.12500000000000006 -0.48630945529719855 -0.3149287809546641
v -0.12499999999999996 -0.5081191489798667 0.18459532983626484
v -0.12499999999999997 -0.48630945529719866 -0.3149287809546641
v 0.12499999999999997 -0.3832381212821343 0.19004775325693185
v 0.12499999999999997 -0.3614284275994663 -0.30947635753399705
v -0.12500000000000003 -0.38323812128213447 0.19004775325693185
v -0.12500000000000003 -0.3614284275994665 -0.30947635753399705
vt 0.28125 1
vt 0 1
vt 0 0.859375
vt 0.28125 0.859375
vt 0.28125 0.6875
vt 0.28125 0.828125
vt 0 0.828125
vt 0 0.6875
vt 0.3125 0.5
vt 0.390625 0.5
vt 0.390625 0.78125
vt 0.3125 0.78125
vt 0.078125 0.359375
vt 0.078125 0.640625
vt 0 0.640625
vt 0 0.359375
vt 0.640625 0.29545453125
vt 0.640625 0.4375
vt 0.5625 0.4375
vt 0.5625 0.29545453125
vt 0.46875 0.359375
vt 0.390625 0.359375
vt 0.390625 0.21875
vt 0.46875 0.21875
vn 5.548858394565784e-16 -0.9990482215818578 -0.043619387365335986
vn -5.548858394565784e-16 0.9990482215818578 0.043619387365335986
vn 1 5.551885097576599e-16 1.0349044857632409e-17
vn -1 -5.551885097576599e-16 -1.0349044857632409e-17
vn 1.7281334472076124e-17 -0.04361938736533599 0.9990482215818579
vn -1.7281334472076124e-17 0.04361938736533599 -0.9990482215818579
usemtl m_0614cc4f-fccf-8938-d0e6-ef52955d406c
f 54/101/26 53/102/26 55/103/26 56/104/26
f 59/105/27 57/106/27 58/107/27 60/108/27
f 57/109/28 53/110/28 54/111/28 58/112/28
f 56/113/29 55/114/29 59/115/29 60/116/29
f 55/117/30 53/118/30 57/119/30 59/120/30
f 58/121/31 54/122/31 56/123/31 60/124/31