# Made in Blockbench 5.0.4
mtllib redcrystal.mtl

o pyramid
v 0 0.0625 0
v 0.125 -0.4375 0.125
v 0.125 -0.4375 -0.125
v -0.125 -0.4375 0.125
v -0.125 -0.4375 -0.125
vt 0.4375 0.875
vt 0.4375 1
vt 0.3125 1
vt 0.3125 0.875
vt 0.1580109223661023 0.4517981192654673
vt 0.27948907763389774 0.4223352987498854
vt 0.2794890776338977 0.6875
vt 0.0017609223661022924 0.7642981192654673
vt 0.12323907763389771 0.7348352987498854
vt 0.12323907763389769 1
vt 0.15801092236610229 0.7642981192654673
vt 0.27948907763389774 0.7348352987498854
vt 0.2794890776338977 1
vt 0.0017609223661022924 0.4517981192654673
vt 0.12323907763389771 0.4223352987498854
vt 0.12323907763389769 0.6875
vn 0 -1 0
vn 0.9701425001453319 0.24253562503633297 0
vn 0 0.24253562503633297 0.9701425001453319
vn 0 0.24253562503633297 -0.9701425001453319
vn -0.9701425001453319 0.24253562503633297 0
usemtl m_26d9432c-0b66-a412-e4b4-0a1856f3f467
f 3/1/1 2/2/1 4/3/1 5/4/1
f 2/5/2 3/6/2 1/7/2
f 4/8/3 2/9/3 1/10/3
f 3/11/4 5/12/4 1/13/4
f 5/14/5 4/15/5 1/16/5
o pyramid
v 0 -0.625 -4.209723372069027e-17
v 0.125 -0.4375 -0.12500000000000003
v 0.125 -0.4375 0.12499999999999999
v -0.125 -0.4375 -0.12500000000000003
v -0.125 -0.4375 0.12499999999999999
vt 0.4375 0.875
vt 0.4375 1
vt 0.3125 1
vt 0.3125 0.875
vt 0.1580109223661023 0.4517981192654673
vt 0.27948907763389774 0.4223352987498854
vt 0.2794890776338977 0.6875
vt 0.0017609223661022924 0.7642981192654673
vt 0.12323907763389771 0.7348352987498854
vt 0.12323907763389769 1
vt 0.15801092236610229 0.7642981192654673
vt 0.27948907763389774 0.7348352987498854
vt 0.2794890776338977 1
vt 0.0017609223661022924 0.4517981192654673
vt 0.12323907763389771 0.4223352987498854
vt 0.12323907763389769 0.6875
vn 0 1 1.2246467991473532e-16
vn 0.8320502943378437 -0.5547001962252291 -6.793118197936356e-17
vn 0 -0.554700196225229 -0.8320502943378438
vn 0 -0.5547001962252293 0.8320502943378436
vn -0.8320502943378437 -0.5547001962252291 -6.793118197936356e-17
usemtl m_26d9432c-0b66-a412-e4b4-0a1856f3f467
f 8/17/6 7/18/6 9/19/6 10/20/6
f 7/21/7 8/22/7 6/23/7
f 9/24/8 7/25/8 6/26/8
f 8/27/9 10/28/9 6/29/9
f 10/30/10 9/31/10 6/32/10