# Made in Blockbench 5.0.4
mtllib rustsword.mtl

o cuboid
v 0.03125 -0.14999999999999997 0.03125
v 0.03125 -0.14999999999999997 -0.03125
v 0.03125 -0.5 0.03125
v 0.03125 -0.5 -0.03125
v -0.03125 -0.14999999999999997 0.03125
v -0.03125 -0.14999999999999997 -0.03125
v -0.03125 -0.5 0.03125
v -0.03125 -0.5 -0.03125
vt 0.541015625 0.544921875
vt 0.541015625 0.5546875
vt 0.486328125 0.5546875
vt 0.486328125 0.544921875
vt 0.486328125 0.53515625
vt 0.541015625 0.53515625
vt 0.541015625 0.544921875
vt 0.486328125 0.544921875
vt 0.595703125 0.53515625
vt 0.60546875 0.53515625
vt 0.60546875 0.544921875
vt 0.595703125 0.544921875
vt 0.486328125 0.53515625
vt 0.486328125 0.544921875
vt 0.4765625 0.544921875
vt 0.4765625 0.53515625
vt 0.541015625 0.544921875
vt 0.595703125 0.544921875
vt 0.595703125 0.5546875
vt 0.541015625 0.5546875
vt 0.595703125 0.53515625
vt 0.595703125 0.544921875
vt 0.541015625 0.544921875
vt 0.541015625 0.53515625
vn 1 0 0
vn -1 0 0
vn 0 1 0
vn 0 -1 0
vn 0 0 1
vn 0 0 -1
usemtl m_f0d94118-cdf6-3c90-b32a-51c38c75707e
f 2/1/1 1/2/1 3/3/1 4/4/1
f 7/5/2 5/6/2 6/7/2 8/8/2
f 5/9/3 1/10/3 2/11/3 6/12/3
f 4/13/4 3/14/4 7/15/4 8/16/4
f 3/17/5 1/18/5 5/19/5 7/20/5
f 6/21/6 2/22/6 4/23/6 8/24/6
o cuboid
v 0.03125 -0.15000000000000002 0.11875000000000009
v 0.03125 -0.09999999999999992 0.11875000000000009
v 0.03125 -0.15000000000000002 -0.11875000000000001
v 0.03125 -0.09999999999999998 -0.11875000000000001
v -0.03125 -0.15000000000000002 0.11875000000000009
v -0.03125 -0.09999999999999992 0.11875000000000009
v -0.03125 -0.15000000000000002 -0.11875000000000001
v -0.03125 -0.09999999999999998 -0.11875000000000001
vt 0.1953125 0.44921875
vt 0.1875 0.44921875
vt 0.1875 0.412109375
vt 0.1953125 0.412109375
vt 0.177734375 0.412109375
vt 0.177734375 0.44921875
vt 0.169921875 0.44921875
vt 0.169921875 0.412109375
vt 0.177734375 0.458984375
vt 0.177734375 0.44921875
vt 0.185546875 0.44921875
vt 0.185546875 0.458984375
vt 0.169921875 0.44921875
vt 0.177734375 0.44921875
vt 0.177734375 0.458984375
vt 0.169921875 0.458984375
vt 0.169921875 0.412109375
vt 0.169921875 0.44921875
vt 0.16015625 0.44921875
vt 0.16015625 0.412109375
vt 0.1875 0.44921875
vt 0.177734375 0.44921875
vt 0.177734375 0.412109375
vt 0.1875 0.412109375
vn 1 0 0
vn -1 0 0
vn 0 2.220446049250313e-16 1
vn 0 -2.220446049250313e-16 -1
vn 0 -1 2.220446049250313e-16
vn 0 1 -2.220446049250313e-16
usemtl m_f0d94118-cdf6-3c90-b32a-51c38c75707e
f 10/25/7 9/26/7 11/27/7 12/28/7
f 15/29/8 13/30/8 14/31/8 16/32/8
f 13/33/9 9/34/9 10/35/9 14/36/9
f 12/37/10 11/38/10 15/39/10 16/40/10
f 11/41/11 9/42/11 13/43/11 15/44/11
f 14/45/12 10/46/12 12/47/12 16/48/12
o cuboid
v 0.0000625 0.8875000000000001 0.06875
v 0.0000625 0.8875000000000001 -0.06875
v 0.0000625 -0.09999999999999998 0.06875
v 0.0000625 -0.09999999999999998 -0.06875
v -0.0000625 0.8875000000000001 0.06875
v -0.0000625 0.8875000000000001 -0.06875
v -0.0000625 -0.09999999999999998 0.06875
v -0.0000625 -0.09999999999999998 -0.06875
vt 0.25 0.859375
vt 0.25 0.880859375
vt 0.404296875 0.880859375
vt 0.404296875 0.859375
vt 0.404296875 0.880859375
vt 0.55859375 0.880859375
vt 0.55859375 0.859375
vt 0.404296875 0.859375
vt 0.68359375 0.93359375
vt 0.705078125 0.93359375
vt 0.705078125 0.955078125
vt 0.68359375 0.955078125
vt 0.703125 0.958984375
vt 0.703125 0.98046875
vt 0.681640625 0.98046875
vt 0.681640625 0.958984375
vt 0.654296875 0.830078125
vt 0.654296875 0.984375
vt 0.6328125 0.984375
vt 0.6328125 0.830078125
vt 0.677734375 0.984375
vt 0.65625 0.984375
vt 0.65625 0.830078125
vt 0.677734375 0.830078125
vn 1 0 0
vn -1 0 0
vn 0 1 0
vn 0 -1 0
vn 0 0 1
vn 0 0 -1
usemtl m_f0d94118-cdf6-3c90-b32a-51c38c75707e
f 18/49/13 17/50/13 19/51/13 20/52/13
f 23/53/14 21/54/14 22/55/14 24/56/14
f 21/57/15 17/58/15 18/59/15 22/60/15
f 20/61/16 19/62/16 23/63/16 24/64/16
f 19/65/17 17/66/17 21/67/17 23/68/17
f 22/69/18 18/70/18 20/71/18 24/72/18