# Made in Blockbench 5.0.4
mtllib shrimpclaw.mtl

o cuboid
v 0.375 0 0.5625
v 0.375 0 -0.6875
v 0.375 -0.5 0.5625
v 0.375 -0.5 -0.6875
v -0.375 0 0.5625
v -0.375 0 -0.6875
v -0.375 -0.5 0.5625
v -0.375 -0.5 -0.6875
vt 0.6484375 0.6953125
vt 0.4921875 0.6953125
vt 0.4921875 0.6328125
vt 0.6484375 0.6328125
vt 0.6484375 0.5625
vt 0.6484375 0.625
vt 0.4921875 0.625
vt 0.4921875 0.5625
vt 0.265625 0.640625
vt 0.359375 0.640625
vt 0.359375 0.796875
vt 0.265625 0.796875
vt 0.09375 0.4921875
vt 0.09375 0.6484375
vt 0 0.6484375
vt 0 0.4921875
vt 0.09375 0.421875
vt 0.09375 0.484375
vt 0 0.484375
vt 0 0.421875
vt 0.09375 0.4140625
vt 0 0.4140625
vt 0 0.3515625
vt 0.09375 0.3515625
vn 1 0 0
vn -1 0 0
vn 0 1 0
vn 0 -1 0
vn 0 0 1
vn 0 0 -1
usemtl m_e3229f58-0743-28b7-b69e-d4fc4df4e120
f 2/1/1 1/2/1 3/3/1 4/4/1
f 7/5/2 5/6/2 6/7/2 8/8/2
f 5/9/3 1/10/3 2/11/3 6/12/3
f 4/13/4 3/14/4 7/15/4 8/16/4
f 3/17/5 1/18/5 5/19/5 7/20/5
f 6/21/6 2/22/6 4/23/6 8/24/6
o cuboid
v 0.25399837814136084 -0.125 -0.6304530997199944
v 0.10364547838922429 -0.125 -1.107311575094108
v 0.25399837814136084 -0.375 -0.6304530997199944
v 0.10364547838922429 -0.375 -1.107311575094108
v -0.10364547838922429 -0.125 -0.5176884249058921
v -0.25399837814136084 -0.125 -0.9945469002800056
v -0.10364547838922429 -0.375 -0.5176884249058921
v -0.25399837814136084 -0.375 -0.9945469002800056
vt 0.6796875 0.9296875
vt 0.6171875 0.9296875
vt 0.6171875 0.8984375
vt 0.6796875 0.8984375
vt 0.6796875 0.859375
vt 0.6796875 0.890625
vt 0.6171875 0.890625
vt 0.6171875 0.859375
vt 0.140625 0.34375
vt 0.1875 0.34375
vt 0.1875 0.40625
vt 0.140625 0.40625
vt 0.6640625 0.9375
vt 0.6640625 1
vt 0.6171875 1
vt 0.6171875 0.9375
vt 0.671875 0.3984375
vt 0.671875 0.4296875
vt 0.625 0.4296875
vt 0.625 0.3984375
vt 0.671875 0.390625
vt 0.625 0.390625
vt 0.625 0.359375
vt 0.671875 0.359375
vn 0.9537169507482269 0 -0.30070579950427306
vn -0.9537169507482269 0 0.30070579950427306
vn 0 1 0
vn 0 -1 0
vn 0.30070579950427306 0 0.9537169507482269
vn -0.30070579950427306 0 -0.9537169507482269
usemtl m_e3229f58-0743-28b7-b69e-d4fc4df4e120
f 10/25/7 9/26/7 11/27/7 12/28/7
f 15/29/8 13/30/8 14/31/8 16/32/8
f 13/33/9 9/34/9 10/35/9 14/36/9
f 12/37/10 11/38/10 15/39/10 16/40/10
f 11/41/11 9/42/11 13/43/11 15/44/11
f 14/45/12 10/46/12 12/47/12 16/48/12
o cuboid
v -0.21875 -0.15625 -0.5625
v -0.21875 -0.15625 -0.9375
v -0.21875 -0.34375 -0.5625
v -0.21875 -0.34375 -0.9375
v -0.40625 -0.15625 -0.5625
v -0.40625 -0.15625 -0.9375
v -0.40625 -0.34375 -0.5625
v -0.40625 -0.34375 -0.9375
vt 0.6796875 0.9296875
vt 0.6171875 0.9296875
vt 0.6171875 0.8984375
vt 0.6796875 0.8984375
vt 0.6796875 0.859375
vt 0.6796875 0.890625
vt 0.6171875 0.890625
vt 0.6171875 0.859375
vt 0.140625 0.34375
vt 0.1875 0.34375
vt 0.1875 0.40625
vt 0.140625 0.40625
vt 0.6640625 0.9375
vt 0.6640625 1
vt 0.6171875 1
vt 0.6171875 0.9375
vt 0.671875 0.3984375
vt 0.671875 0.4296875
vt 0.625 0.4296875
vt 0.625 0.3984375
vt 0.671875 0.390625
vt 0.625 0.390625
vt 0.625 0.359375
vt 0.671875 0.359375
vn 1 0 0
vn -1 0 0
vn 0 1 0
vn 0 -1 0
vn 0 0 1
vn 0 0 -1
usemtl m_e3229f58-0743-28b7-b69e-d4fc4df4e120
f 18/49/13 17/50/13 19/51/13 20/52/13
f 23/53/14 21/54/14 22/55/14 24/56/14
f 21/57/15 17/58/15 18/59/15 22/60/15
f 20/61/16 19/62/16 23/63/16 24/64/16
f 19/65/17 17/66/17 21/67/17 23/68/17
f 22/69/18 18/70/18 20/71/18 24/72/18