# Made in Blockbench 5.1.3
mtllib torchflame2.mtl

o cuboid
v 0.028826465234630005 -0.035551913995200524 0.125
v 0.028826465234630005 -0.035551913995200524 -0.125
v -0.14218360642820432 -0.5053982243881547 0.125
v -0.14218360642820432 -0.5053982243881547 -0.125
vt 1 -1.0625
vt 1 -0.0625
vt 0 -0.0625
vt 0 -1.0625
vn -0.9396926207859084 0.34202014332566866 0
usemtl m_6f31ed3e-a774-5643-7db2-65c01ab6dbe0
f 3/1/1 1/2/1 2/3/1 4/4/1
o cuboid
v -0.125 -0.035551913995200524 0.028826465234630033
v 0.12499999999999997 -0.035551913995200524 0.028826465234629978
v -0.12499999999999999 -0.5053982243881547 -0.14218360642820432
v 0.12499999999999999 -0.5053982243881547 -0.14218360642820438
vt 1 -1.0625
vt 1 -0.0625
vt 0 -0.0625
vt 0 -1.0625
vn -2.3713257458380586e-16 0.34202014332566866 -0.9396926207859085
usemtl m_6f31ed3e-a774-5643-7db2-65c01ab6dbe0
f 7/5/2 5/6/2 6/7/2 8/8/2
o cuboid
v -0.02882646523463009 -0.03555191399520058 -0.12499999999999992
v -0.02882646523463009 -0.03555191399520058 0.12500000000000003
v 0.14218360642820432 -0.5053982243881547 -0.12499999999999997
v 0.14218360642820432 -0.5053982243881547 0.12499999999999997
vt 1 -1.0625
vt 1 -0.0625
vt 0 -0.0625
vt 0 -1.0625
vn 0.9396926207859083 0.3420201433256689 4.1885387376769936e-17
usemtl m_6f31ed3e-a774-5643-7db2-65c01ab6dbe0
f 11/9/3 9/10/3 10/11/3 12/12/3
o cuboid
v 0.12499999999999997 -0.035551913995200524 -0.028826465234629978
v -0.125 -0.035551913995200524 -0.028826465234630033
v 0.12499999999999999 -0.5053982243881547 0.14218360642820438
v -0.12499999999999999 -0.5053982243881547 0.14218360642820432
vt 1 -1.0625
vt 1 -0.0625
vt 0 -0.0625
vt 0 -1.0625
vn -2.3713257458380586e-16 0.34202014332566866 0.9396926207859085
usemtl m_6f31ed3e-a774-5643-7db2-65c01ab6dbe0
f 15/13/4 13/14/4 14/15/4 16/16/4